<svg width="40" height="40" viewBox="0 0 40 40" fill="none" xmlns="http://www.w3.org/2000/svg">
<path d="M20 0C11.7163 0 5 6.71625 5 15C5 18.2619 6.06938 21.255 7.84688 23.7062C7.87875 23.765 7.88375 23.8306 7.92 23.8869L17.92 38.8869C18.3838 39.5825 19.165 40 20 40C20.835 40 21.6162 39.5825 22.08 38.8869L32.08 23.8869C32.1169 23.8306 32.1213 23.765 32.1531 23.7062C33.9306 21.255 35 18.2619 35 15C35 6.71625 28.2838 0 20 0ZM20 20C17.2387 20 15 17.7612 15 15C15 12.2387 17.2387 10 20 10C22.7612 10 25 12.2387 25 15C25 17.7612 22.7612 20 20 20Z" fill="white"/>
</svg>
