<svg width="40" height="40" viewBox="0 0 40 40" fill="none" xmlns="http://www.w3.org/2000/svg">
<path d="M27.5936 21.51L26.8345 22.2647C26.8345 22.2647 25.0301 24.0588 20.1051 19.1617C15.1802 14.2647 16.9845 12.4706 16.9845 12.4706L17.4625 11.9953C18.6401 10.8244 18.7511 8.94452 17.7236 7.57213L15.6221 4.7648C14.3504 3.0662 11.8932 2.84182 10.4357 4.29105L7.81971 6.8922C7.09701 7.6108 6.61271 8.54232 6.67144 9.57569C6.82169 12.2194 8.01781 17.9075 14.6922 24.544C21.7701 31.5817 28.4113 31.8613 31.1271 31.6082C31.9861 31.5282 32.7331 31.0907 33.3351 30.492L35.7028 28.138C37.301 26.5488 36.8503 23.8245 34.8055 22.713L31.6213 20.982C30.2786 20.2522 28.643 20.4665 27.5936 21.51Z" fill="white"/>
</svg>
