<svg width="223" height="212" viewBox="0 0 223 212" fill="none" xmlns="http://www.w3.org/2000/svg">
<g clip-path="url(#clip0_4097_1482)">
<path d="M222.84 139.2L222.82 145.21L109.36 211.15L109.37 205.13L222.84 139.2Z" fill="#D7D7D7"/>
<path d="M109.37 205.13L109.36 211.15L0 148.01L0.02 142L109.37 205.13Z" fill="#AEB5B7"/>
<path d="M222.84 139.2L109.37 205.13L0.0200195 142L113.48 76.0601L222.84 139.2Z" fill="#D0D0D0"/>
<path d="M193.96 139.56L109.91 188.41L28.8999 141.63L112.95 92.79L193.96 139.56Z" fill="#E2E2E1"/>
<path d="M106.25 6.27002L105.93 119.1L98.3 123.53L98.62 10.71L106.25 6.27002Z" fill="#48494F"/>
<path d="M106.25 6.26995L98.6201 10.71L96.3401 9.38995L103.98 4.94995L106.25 6.26995Z" fill="#8C9BCE"/>
<path d="M98.62 10.71L98.3 123.53L96.02 122.22L96.34 9.39001L98.62 10.71Z" fill="#455797"/>
<path d="M136.5 13.84L136.18 126.67L116.73 115.44L117.05 2.60999L136.5 13.84Z" fill="#6E717A"/>
<path d="M141.01 13.84L140.69 126.67L136.7 128.99L137.02 16.16L141.01 13.84Z" fill="#8B8F9A"/>
<path d="M136.5 13.84L136.18 126.67L132.2 128.99L132.52 16.16L136.5 13.84Z" fill="#48494F"/>
<path d="M150.89 22.15L150.57 134.98L146.58 137.29L146.9 24.46L150.89 22.15Z" fill="#8B8F9A"/>
<path d="M146.9 24.46L146.58 137.29L132.2 128.99L132.52 16.16L146.9 24.46Z" fill="#6E717A"/>
<path d="M65.6 29.89L65.28 142.72L63.01 141.41L63.33 28.58L65.6 29.89Z" fill="#455797"/>
<path d="M73.24 25.45L72.92 138.28L65.28 142.72L65.6 29.8899L73.24 25.45Z" fill="#48494F"/>
<path d="M73.2401 25.45L65.6001 29.89L63.3301 28.58L70.9601 24.14L73.2401 25.45Z" fill="#8C9BCE"/>
<path d="M170.34 33.38L170.02 146.21L150.57 134.98L150.89 22.15L170.34 33.38Z" fill="#6E717A"/>
<path d="M117.05 2.60999L116.73 115.44L59.01 148.99L59.33 36.16L117.05 2.60999Z" fill="#8B8F9A"/>
<path d="M82.76 45.0699L82.44 157.9L78.46 160.22L78.78 47.3899L82.76 45.0699Z" fill="#48494F"/>
<path d="M78.79 50L78.47 162.83L54.5 148.99L54.82 36.16L78.79 50Z" fill="#9DCBD5"/>
<path d="M82.77 47.6801L82.45 160.51L78.47 162.83L78.79 50.0001L82.77 47.6801Z" fill="#D7E9EF"/>
<path d="M92.64 53.3801L92.32 166.21L82.45 160.51L82.77 47.6801L92.64 53.3801Z" fill="#79B9C4"/>
<path d="M97.1501 53.38L96.8301 166.21L92.8401 168.52L93.1701 55.69L97.1501 53.38Z" fill="#8B8F9A"/>
<path d="M170.34 33.38L170.02 146.21L112.3 179.76L112.62 66.93L170.34 33.38Z" fill="#48494F"/>
<path d="M170.34 33.38L112.62 66.93L93.1701 55.69L97.1501 53.38L82.7601 45.07L78.7801 47.39L59.3301 36.16L117.05 2.60999L136.5 13.84L132.52 16.16L146.9 24.46L150.89 22.15L170.34 33.38Z" fill="#D7E9EF"/>
<path d="M174.85 33.38L174.53 146.21L112.31 182.37L112.63 69.54L174.85 33.38Z" fill="#D7E9EF"/>
<path d="M150.88 19.54L174.88 33.38L112.63 69.54L88.63 55.7L92.63 53.38L82.76 47.68L78.76 50L54.76 36.16L65.6 29.89L73.24 25.45L98.62 10.71L106.25 6.27L117 0L141 13.84L137 16.16L146.87 21.85L150.88 19.54ZM112.62 66.93L170.34 33.38L150.89 22.15L146.89 24.46L132.51 16.16L136.51 13.84L117.05 2.61L59.33 36.16L78.78 47.39L82.78 45.07L97.17 53.38L93.17 55.69L112.63 66.93" fill="#FDFEFF"/>
<path d="M112.63 69.54L112.31 182.37L88.3301 168.53L88.6601 55.7L112.63 69.54Z" fill="#9DCBD5"/>
<path d="M166.34 40.96L166.02 153.79L158.39 158.23L158.71 45.4L166.34 40.96Z" fill="#6875B4"/>
<path d="M158.71 45.4001L158.39 158.23L156.11 156.91L156.43 44.0801L158.71 45.4001Z" fill="#455797"/>
<path d="M166.34 40.96L158.71 45.4L156.43 44.08L164.07 39.65L166.34 40.96Z" fill="#8C9BCE"/>
<path d="M133.33 60.1499L133.01 172.98L125.37 177.41L125.69 64.5799L133.33 60.1499Z" fill="#6875B4"/>
<path d="M125.69 64.5799L125.37 177.41L123.1 176.1L123.42 63.2699L125.69 64.5799Z" fill="#455797"/>
<path d="M133.33 60.15L125.69 64.58L123.42 63.27L131.05 58.83L133.33 60.15Z" fill="#8C9BCE"/>
<path d="M103.34 75.11L103.31 85.71L94.0901 80.39L94.1201 69.79L103.34 75.11Z" fill="#79B9C4"/>
<path d="M103.32 83.98L103.31 85.71L94.0901 80.39L94.1101 69.79L95.5101 70.6L95.4901 79.47L103.32 83.98Z" fill="#599EA5"/>
<path d="M103.34 100.85L103.31 111.45L94.0901 106.12L94.1201 95.53L103.34 100.85Z" fill="#79B9C4"/>
<path d="M103.32 109.72L103.31 111.45L94.0901 106.12L94.1101 95.52L95.5101 96.33L95.4901 105.21L103.32 109.72Z" fill="#599EA5"/>
<path d="M103.34 126.59L103.31 137.19L94.0901 131.86L94.1201 121.26L103.34 126.59Z" fill="#79B9C4"/>
<path d="M103.32 135.46L103.31 137.19L94.0901 131.86L94.1101 121.26L95.5101 122.07L95.4901 130.94L103.32 135.46Z" fill="#599EA5"/>
<path d="M103.34 152.32L103.31 162.92L94.0901 157.6L94.1201 147L103.34 152.32Z" fill="#79B9C4"/>
<path d="M103.32 161.19L103.31 162.92L94.0901 157.6L94.1101 147L95.5101 147.81L95.4901 156.68L103.32 161.19Z" fill="#599EA5"/>
<path d="M71.05 57.7599L71.02 68.3599L61.79 63.0399L61.82 52.4399L71.05 57.7599Z" fill="#79B9C4"/>
<path d="M71.02 66.6299V68.3599L61.79 63.0399L61.82 52.4399L63.22 53.2399L63.2 62.1199L71.02 66.6299Z" fill="#599EA5"/>
<path d="M71.05 83.5L71.02 94.1L61.79 88.77L61.82 78.17L71.05 83.5Z" fill="#79B9C4"/>
<path d="M71.02 92.37V94.1L61.79 88.77L61.82 78.17L63.22 78.98L63.2 87.85L71.02 92.37Z" fill="#599EA5"/>
<path d="M71.05 109.24L71.02 119.83L61.79 114.51L61.82 103.91L71.05 109.24Z" fill="#79B9C4"/>
<path d="M71.02 118.11V119.84L61.79 114.51L61.82 103.91L63.22 104.72L63.2 113.59L71.02 118.11Z" fill="#599EA5"/>
<path d="M71.05 134.97L71.02 145.57L61.79 140.25L61.82 129.65L71.05 134.97Z" fill="#79B9C4"/>
<path d="M71.02 143.84V145.57L61.79 140.25L61.82 129.65L63.22 130.46L63.2 139.33L71.02 143.84Z" fill="#599EA5"/>
<path d="M140.34 66.7601L140.37 77.3601L149.59 72.0301L149.56 61.4301L140.34 66.7601Z" fill="#79B9C4"/>
<path d="M140.36 75.6301L140.37 77.3601L149.59 72.0301L149.57 61.4301L148.17 62.2401L148.19 71.1101L140.36 75.6301Z" fill="#599EA5"/>
<path d="M140.34 92.5L140.37 103.09L149.59 97.77L149.56 87.17L140.34 92.5Z" fill="#79B9C4"/>
<path d="M140.36 101.37L140.37 103.09L149.59 97.77L149.57 87.17L148.17 87.98L148.19 96.85L140.36 101.37Z" fill="#599EA5"/>
<path d="M140.34 118.23L140.37 128.83L149.59 123.5L149.56 112.91L140.34 118.23Z" fill="#79B9C4"/>
<path d="M140.36 127.1L140.37 128.83L149.59 123.5L149.57 112.9L148.17 113.71L148.19 122.59L140.36 127.1Z" fill="#599EA5"/>
<path d="M140.34 143.97L140.37 154.57L149.59 149.24L149.56 138.64L140.34 143.97Z" fill="#79B9C4"/>
<path d="M140.36 152.84L140.37 154.57L149.59 149.24L149.57 138.64L148.17 139.45L148.19 148.32L140.36 152.84Z" fill="#599EA5"/>
<path d="M117.05 2.60999V7.30999L132.52 16.16L136.5 13.84L117.05 2.60999Z" fill="#9DCBD5"/>
<path d="M117.05 7.30999L63.3301 38.47L59.3301 36.16L117.05 2.60999V7.30999Z" fill="#C2DEE5"/>
<path d="M132.52 16.16V20.86L146.9 29.17V24.46L132.52 16.16Z" fill="#9DCBD5"/>
<path d="M146.9 29.17L150.89 26.85V22.15L146.9 24.46V29.17Z" fill="#C2DEE5"/>
<path d="M150.89 26.85L166.17 35.65L170.34 33.38L150.89 22.15V26.85Z" fill="#9DCBD5"/>
<path d="M98.3901 32.3199V36.2799L115.6 46.2199V42.2499L98.3901 32.3199Z" fill="#9DCBD5"/>
<path d="M131.28 33.14L115.6 42.25V46.22L131.28 37.1V33.14Z" fill="#C2DEE5"/>
<path d="M131.28 33.1399L115.6 42.25L98.3901 32.32L114.07 23.2L131.28 33.1399Z" fill="#EEF6F8"/>
</g>
<defs>
<clipPath id="clip0_4097_1482">
<rect width="222.84" height="211.15" fill="white"/>
</clipPath>
</defs>
</svg>
