<svg width="223" height="212" viewBox="0 0 223 212" fill="none" xmlns="http://www.w3.org/2000/svg">
<g clip-path="url(#clip0_4097_8649)">
<path d="M222.84 139.2L222.82 145.21L109.36 211.15L109.37 205.13L222.84 139.2Z" fill="#D7D7D7"/>
<path d="M109.37 205.13L109.36 211.15L0 148.01L0.02 142L109.37 205.13Z" fill="#AEB5B7"/>
<path d="M222.84 139.2L109.37 205.13L0.0200195 142L113.48 76.0601L222.84 139.2Z" fill="#D0D0D0"/>
<path d="M193.96 139.56L109.91 188.41L28.8999 141.63L112.95 92.79L193.96 139.56Z" fill="#E2E2E1"/>
<path d="M106.25 6.27002L105.93 119.1L98.3 123.53L98.62 10.71L106.25 6.27002Z" fill="#48494F"/>
<path d="M106.25 6.26995L98.6201 10.71L96.3401 9.38995L103.98 4.94995L106.25 6.26995Z" fill="#8C9BCE"/>
<path d="M98.62 10.71L98.3 123.53L96.02 122.22L96.34 9.39001L98.62 10.71Z" fill="#455797"/>
<path d="M136.5 13.84L136.18 126.67L116.73 115.44L117.05 2.60999L136.5 13.84Z" fill="#6E717A"/>
<path d="M141.01 13.84L140.69 126.67L136.7 128.99L137.02 16.16L141.01 13.84Z" fill="#8B8F9A"/>
<path d="M136.5 13.84L136.18 126.67L132.2 128.99L132.52 16.16L136.5 13.84Z" fill="#48494F"/>
<path d="M150.89 22.15L150.57 134.98L146.58 137.29L146.9 24.46L150.89 22.15Z" fill="#8B8F9A"/>
<path d="M146.9 24.46L146.58 137.29L132.2 128.99L132.52 16.16L146.9 24.46Z" fill="#6E717A"/>
<path d="M65.6 29.89L65.28 142.72L63.01 141.41L63.33 28.58L65.6 29.89Z" fill="#455797"/>
<path d="M73.24 25.45L72.92 138.28L65.28 142.72L65.6 29.8899L73.24 25.45Z" fill="#48494F"/>
<path d="M73.2401 25.45L65.6001 29.89L63.3301 28.58L70.9601 24.14L73.2401 25.45Z" fill="#8C9BCE"/>
<path d="M170.34 33.38L170.02 146.21L150.57 134.98L150.89 22.15L170.34 33.38Z" fill="#6E717A"/>
<path d="M117.05 2.60999L116.73 115.44L59.01 148.99L59.33 36.16L117.05 2.60999Z" fill="#8B8F9A"/>
<path d="M82.76 45.0699L82.44 157.9L78.46 160.22L78.78 47.3899L82.76 45.0699Z" fill="#48494F"/>
<path d="M78.79 50L78.47 162.83L54.5 148.99L54.82 36.16L78.79 50Z" fill="#9DCBD5"/>
<path d="M82.77 47.6801L82.45 160.51L78.47 162.83L78.79 50.0001L82.77 47.6801Z" fill="#D7E9EF"/>
<path d="M92.64 53.3801L92.32 166.21L82.45 160.51L82.77 47.6801L92.64 53.3801Z" fill="#79B9C4"/>
<path d="M97.1501 53.38L96.8301 166.21L92.8401 168.52L93.1701 55.69L97.1501 53.38Z" fill="#8B8F9A"/>
<path d="M170.34 33.38L170.02 146.21L112.3 179.76L112.62 66.93L170.34 33.38Z" fill="#48494F"/>
<path d="M170.34 33.38L112.62 66.93L93.1701 55.69L97.1501 53.38L82.7601 45.07L78.7801 47.39L59.3301 36.16L117.05 2.60999L136.5 13.84L132.52 16.16L146.9 24.46L150.89 22.15L170.34 33.38Z" fill="#D7E9EF"/>
<path d="M174.85 33.38L174.53 146.21L112.31 182.37L112.63 69.54L174.85 33.38Z" fill="#D7E9EF"/>
<path d="M150.88 19.54L174.88 33.38L112.63 69.54L88.63 55.7L92.63 53.38L82.76 47.68L78.76 50L54.76 36.16L65.6 29.89L73.24 25.45L98.62 10.71L106.25 6.27L117 0L141 13.84L137 16.16L146.87 21.85L150.88 19.54ZM112.62 66.93L170.34 33.38L150.89 22.15L146.89 24.46L132.51 16.16L136.51 13.84L117.05 2.61L59.33 36.16L78.78 47.39L82.78 45.07L97.17 53.38L93.17 55.69L112.63 66.93" fill="#FDFEFF"/>
<path d="M112.63 69.54L112.31 182.37L88.3301 168.53L88.6601 55.7L112.63 69.54Z" fill="#9DCBD5"/>
<path d="M166.34 40.96L166.02 153.79L158.39 158.23L158.71 45.4L166.34 40.96Z" fill="#6875B4"/>
<path d="M158.71 45.4001L158.39 158.23L156.11 156.91L156.43 44.0801L158.71 45.4001Z" fill="#455797"/>
<path d="M166.34 40.96L158.71 45.4L156.43 44.08L164.07 39.65L166.34 40.96Z" fill="#8C9BCE"/>
<path d="M133.33 60.1499L133.01 172.98L125.37 177.41L125.69 64.5799L133.33 60.1499Z" fill="#6875B4"/>
<path d="M125.69 64.5799L125.37 177.41L123.1 176.1L123.42 63.2699L125.69 64.5799Z" fill="#455797"/>
<path d="M133.33 60.15L125.69 64.58L123.42 63.27L131.05 58.83L133.33 60.15Z" fill="#8C9BCE"/>
<path d="M103.34 75.11L103.31 85.71L94.0901 80.39L94.1201 69.79L103.34 75.11Z" fill="#79B9C4"/>
<path d="M103.32 83.98L103.31 85.71L94.0901 80.39L94.1101 69.79L95.5101 70.6L95.4901 79.47L103.32 83.98Z" fill="#599EA5"/>
<path d="M103.34 100.85L103.31 111.45L94.0901 106.12L94.1201 95.53L103.34 100.85Z" fill="#79B9C4"/>
<path d="M103.32 109.72L103.31 111.45L94.0901 106.12L94.1101 95.52L95.5101 96.33L95.4901 105.21L103.32 109.72Z" fill="#599EA5"/>
<path d="M103.34 126.59L103.31 137.19L94.0901 131.86L94.1201 121.26L103.34 126.59Z" fill="#79B9C4"/>
<path d="M103.32 135.46L103.31 137.19L94.0901 131.86L94.1101 121.26L95.5101 122.07L95.4901 130.94L103.32 135.46Z" fill="#599EA5"/>
<path d="M103.34 152.32L103.31 162.92L94.0901 157.6L94.1201 147L103.34 152.32Z" fill="#79B9C4"/>
<path d="M103.32 161.19L103.31 162.92L94.0901 157.6L94.1101 147L95.5101 147.81L95.4901 156.68L103.32 161.19Z" fill="#599EA5"/>
<path d="M71.05 57.7599L71.02 68.3599L61.79 63.0399L61.82 52.4399L71.05 57.7599Z" fill="#79B9C4"/>
<path d="M71.02 66.6299V68.3599L61.79 63.0399L61.82 52.4399L63.22 53.2399L63.2 62.1199L71.02 66.6299Z" fill="#599EA5"/>
<path d="M71.05 83.5L71.02 94.1L61.79 88.77L61.82 78.17L71.05 83.5Z" fill="#79B9C4"/>
<path d="M71.02 92.37V94.1L61.79 88.77L61.82 78.17L63.22 78.98L63.2 87.85L71.02 92.37Z" fill="#599EA5"/>
<path d="M71.05 109.24L71.02 119.83L61.79 114.51L61.82 103.91L71.05 109.24Z" fill="#79B9C4"/>
<path d="M71.02 118.11V119.84L61.79 114.51L61.82 103.91L63.22 104.72L63.2 113.59L71.02 118.11Z" fill="#599EA5"/>
<path d="M71.05 134.97L71.02 145.57L61.79 140.25L61.82 129.65L71.05 134.97Z" fill="#79B9C4"/>
<path d="M71.02 143.84V145.57L61.79 140.25L61.82 129.65L63.22 130.46L63.2 139.33L71.02 143.84Z" fill="#599EA5"/>
<path d="M140.34 66.7601L140.37 77.3601L149.59 72.0301L149.56 61.4301L140.34 66.7601Z" fill="#79B9C4"/>
<path d="M140.36 75.6301L140.37 77.3601L149.59 72.0301L149.57 61.4301L148.17 62.2401L148.19 71.1101L140.36 75.6301Z" fill="#599EA5"/>
<path d="M140.34 92.5L140.37 103.09L149.59 97.77L149.56 87.17L140.34 92.5Z" fill="#79B9C4"/>
<path d="M140.36 101.37L140.37 103.09L149.59 97.77L149.57 87.17L148.17 87.98L148.19 96.85L140.36 101.37Z" fill="#599EA5"/>
<path d="M140.34 118.23L140.37 128.83L149.59 123.5L149.56 112.91L140.34 118.23Z" fill="#79B9C4"/>
<path d="M140.36 127.1L140.37 128.83L149.59 123.5L149.57 112.9L148.17 113.71L148.19 122.59L140.36 127.1Z" fill="#599EA5"/>
<path d="M140.34 143.97L140.37 154.57L149.59 149.24L149.56 138.64L140.34 143.97Z" fill="#79B9C4"/>
<path d="M140.36 152.84L140.37 154.57L149.59 149.24L149.57 138.64L148.17 139.45L148.19 148.32L140.36 152.84Z" fill="#599EA5"/>
<path d="M117.05 2.60999V7.30999L132.52 16.16L136.5 13.84L117.05 2.60999Z" fill="#9DCBD5"/>
<path d="M117.05 7.30999L63.3301 38.47L59.3301 36.16L117.05 2.60999V7.30999Z" fill="#C2DEE5"/>
<path d="M132.52 16.16V20.86L146.9 29.17V24.46L132.52 16.16Z" fill="#9DCBD5"/>
<path d="M146.9 29.17L150.89 26.85V22.15L146.9 24.46V29.17Z" fill="#C2DEE5"/>
<path d="M150.89 26.85L166.17 35.65L170.34 33.38L150.89 22.15V26.85Z" fill="#9DCBD5"/>
<path d="M98.3901 32.3199V36.2799L115.6 46.2199V42.2499L98.3901 32.3199Z" fill="#9DCBD5"/>
<path d="M131.28 33.14L115.6 42.25V46.22L131.28 37.1V33.14Z" fill="#C2DEE5"/>
<path d="M131.28 33.1399L115.6 42.25L98.3901 32.32L114.07 23.2L131.28 33.1399Z" fill="#EEF6F8"/>
<g clip-path="url(#clip1_4097_8649)">
<path d="M206.68 169.869C205.874 171.163 204.351 171.677 203.265 171.026C202.179 170.376 201.967 168.793 202.773 167.505C203.579 166.217 205.102 165.696 206.188 166.347C207.275 166.998 207.479 168.615 206.68 169.869Z" fill="#B8753D"/>
<mask id="mask0_4097_8649" style="mask-type:luminance" maskUnits="userSpaceOnUse" x="195" y="159" width="15" height="16">
<path d="M208.709 171.04C208.003 170.69 207.319 170.299 206.66 169.869C207.459 168.581 207.24 167.005 206.168 166.347C205.095 165.69 203.565 166.21 202.752 167.505C201.94 168.8 202.165 170.369 203.244 171.026C204.323 171.684 205.847 171.164 206.66 169.869C207.319 170.299 208.003 170.69 208.709 171.04C208.403 171.533 208.046 171.993 207.643 172.41C207.515 172.556 207.378 172.693 207.233 172.821C206.974 173.041 206.626 173.328 206.359 173.507C205.547 174.068 204.643 174.481 203.688 174.726C203.104 174.87 202.506 174.948 201.905 174.959C201.408 174.964 200.911 174.918 200.423 174.822C199.969 174.738 199.525 174.607 199.098 174.431C198.777 174.288 198.353 174.075 198.046 173.904C197.861 173.801 197.636 173.63 197.465 173.513C194.699 171.458 194.221 167.087 196.468 163.484C198.825 159.695 203.299 158.181 206.455 160.099C207.307 160.611 208.044 161.295 208.62 162.106C209.206 162.945 209.617 163.893 209.829 164.895C209.917 165.28 209.972 165.672 209.993 166.066C209.993 166.244 209.993 166.484 209.993 166.669C209.988 167.05 209.956 167.43 209.897 167.807C209.836 168.135 209.734 168.574 209.652 168.903C209.604 169.067 209.529 169.286 209.467 169.451C209.272 170.006 209.018 170.539 208.709 171.04Z" fill="white"/>
</mask>
<g mask="url(#mask0_4097_8649)">
<path d="M208.709 171.04C211.352 166.464 209.576 162.086 206.455 160.126C203.333 158.167 198.825 159.722 196.468 163.511C194.221 167.115 194.699 171.472 197.465 173.541C201.325 176.185 205.949 175.158 208.709 171.04C208.003 170.69 207.319 170.299 206.66 169.869C205.854 171.163 204.33 171.677 203.244 171.026C202.158 170.376 201.946 168.793 202.752 167.505C203.558 166.217 205.082 165.696 206.168 166.347C207.254 166.998 207.459 168.581 206.66 169.869C207.319 170.299 208.003 170.69 208.709 171.04Z" fill="#BC773E"/>
<path d="M208.313 171.622C206.489 173.678 201.81 172.383 201.591 169.081C201.345 165.491 204.713 158.64 207.671 161.079C207.816 161.198 207.953 161.326 208.081 161.462L207.671 161.045L207.596 160.976L207.152 160.599C206.947 160.455 206.674 160.257 206.469 160.126C203.313 158.208 198.839 159.722 196.482 163.511C194.235 167.115 194.713 171.472 197.479 173.541L197.971 173.876L198.06 173.931L198.579 174.219C198.804 174.322 199.098 174.452 199.324 174.541L199.877 174.719C200.102 174.774 200.403 174.849 200.628 174.89L201.195 174.959C201.414 174.959 201.701 174.959 201.919 174.959H202.479C202.684 174.959 202.951 174.904 203.163 174.87L203.709 174.753C203.893 174.705 204.139 174.637 204.324 174.575L204.843 174.377C205.007 174.301 205.232 174.205 205.396 174.123L205.881 173.849L206.38 173.534L206.824 173.198C206.954 173.082 207.138 172.938 207.261 172.821L207.664 172.417C207.78 172.294 207.937 172.123 208.047 171.986L208.402 171.527L208.484 171.417L208.333 171.622H208.313Z" fill="#BC773E"/>
<path d="M204.412 165.032C204.502 165.108 204.607 165.164 204.72 165.196C205.368 165.369 205.996 165.612 206.591 165.922C206.96 166.181 207.276 166.509 207.52 166.888C207.746 167.245 208.06 167.669 208.06 167.669C208.141 167.712 208.229 167.737 208.32 167.745C208.688 167.82 209.419 166.546 209.488 166.073C209.727 164.497 207.042 161.504 204.918 163.196C204.61 163.442 203.886 164.374 204.412 165.032Z" fill="#FB9F53"/>
</g>
<mask id="mask1_4097_8649" style="mask-type:luminance" maskUnits="userSpaceOnUse" x="206" y="160" width="4" height="12">
<path d="M206.455 160.126C206.605 160.222 206.81 160.346 206.953 160.455C207.097 160.565 207.411 160.812 207.596 160.976C207.932 161.284 208.239 161.623 208.511 161.99C208.613 162.127 208.75 162.312 208.839 162.463C208.928 162.613 209.105 162.908 209.201 163.107C209.344 163.415 209.515 163.833 209.624 164.148C209.699 164.373 209.761 164.601 209.809 164.833C209.898 165.23 209.957 165.633 209.986 166.039C209.986 166.224 209.986 166.477 209.986 166.662C209.983 167.05 209.951 167.437 209.891 167.82C209.836 168.156 209.734 168.594 209.652 168.916C209.598 169.107 209.534 169.294 209.46 169.478C209.261 170.03 209.002 170.558 208.689 171.054C208.441 170.832 208.171 170.636 207.882 170.471C210.26 166.669 209.611 162.045 206.455 160.126Z" fill="white"/>
</mask>
<g mask="url(#mask1_4097_8649)">
<path d="M206.455 160.126C207.302 160.64 208.035 161.321 208.612 162.128C209.188 162.934 209.596 163.85 209.809 164.819C210.267 166.957 209.875 169.189 208.716 171.04C208.463 170.822 208.191 170.627 207.903 170.458C210.26 166.669 209.611 162.045 206.455 160.126Z" fill="#BC773E"/>
</g>
<mask id="mask2_4097_8649" style="mask-type:luminance" maskUnits="userSpaceOnUse" x="197" y="170" width="12" height="5">
<path d="M198.046 173.931C197.868 173.822 197.636 173.664 197.465 173.541C197.609 173.65 197.759 173.746 197.909 173.842C201.065 175.76 205.539 174.246 207.903 170.458C208.192 170.623 208.462 170.818 208.709 171.04C208.613 171.184 208.49 171.389 208.381 171.527C208.161 171.842 207.917 172.14 207.65 172.417C207.534 172.54 207.37 172.705 207.24 172.821C206.988 173.041 206.639 173.321 206.373 173.506C206.064 173.726 205.74 173.923 205.403 174.096C205.253 174.178 205.034 174.267 204.87 174.342C204.514 174.498 204.146 174.624 203.77 174.719C202.793 174.98 201.773 175.041 200.771 174.897C199.807 174.765 198.879 174.436 198.046 173.931Z" fill="white"/>
</mask>
<g mask="url(#mask2_4097_8649)">
<path d="M198.046 173.931C197.868 173.822 197.636 173.664 197.465 173.541C197.609 173.65 197.759 173.746 197.909 173.842C201.065 175.76 205.539 174.246 207.903 170.458C208.192 170.623 208.462 170.818 208.709 171.04C205.779 175.418 201.024 175.795 198.046 173.931Z" fill="#BC773E"/>
</g>
<mask id="mask3_4097_8649" style="mask-type:luminance" maskUnits="userSpaceOnUse" x="171" y="144" width="36" height="30">
<path d="M206.345 160.058C203.196 158.242 198.797 159.763 196.468 163.483C194.241 167.053 194.692 171.376 197.397 173.465L194.999 171.616L193.797 170.691L191.399 168.841L188.995 166.991L187.799 166.066L185.395 164.216L182.997 162.367L181.795 161.442L179.398 159.592L176.993 157.742L175.791 156.845L173.386 154.995C171.337 153.426 171.016 150.199 172.703 147.5C174.452 144.691 177.751 143.547 180.122 144.91L206.345 160.058Z" fill="white"/>
</mask>
<g mask="url(#mask3_4097_8649)">
<path d="M206.345 160.058L180.115 144.91C177.744 143.54 174.445 144.691 172.696 147.5C171.023 150.185 171.33 153.426 173.379 154.995L197.383 173.493C194.651 171.403 194.227 167.08 196.454 163.511C198.783 159.763 203.183 158.242 206.332 160.085L206.345 160.058Z" fill="#BC773E"/>
</g>
<mask id="mask4_4097_8649" style="mask-type:luminance" maskUnits="userSpaceOnUse" x="180" y="144" width="30" height="27">
<path d="M180.115 144.91L206.345 160.058L206.455 160.126C209.611 162.045 210.259 166.669 207.903 170.458L181.262 152.714C183.038 149.871 182.553 146.397 180.183 144.958L180.115 144.91Z" fill="white"/>
</mask>
<g mask="url(#mask4_4097_8649)">
<path d="M207.896 170.458L181.255 152.714C183.031 149.871 182.546 146.397 180.176 144.958L180.094 144.91L206.325 160.058L206.434 160.126C209.59 162.045 210.239 166.669 207.882 170.458H207.896Z" fill="#BC773E"/>
</g>
<mask id="mask5_4097_8649" style="mask-type:luminance" maskUnits="userSpaceOnUse" x="173" y="152" width="35" height="23">
<path d="M197.397 173.493L194.999 171.643L193.797 170.718L191.4 168.868L188.995 167.019L187.8 166.094L185.395 164.244L182.998 162.394L181.795 161.469L179.398 159.619L176.993 157.77L175.791 156.845L173.386 154.995L173.769 155.255C176.139 156.694 179.5 155.557 181.283 152.714L207.923 170.458C205.56 174.246 201.093 175.76 197.93 173.842C197.743 173.733 197.566 173.616 197.397 173.493Z" fill="white"/>
</mask>
<g mask="url(#mask5_4097_8649)">
<path d="M197.397 173.493L173.393 154.995L173.776 155.255C176.146 156.694 179.507 155.557 181.29 152.714L207.93 170.458C205.567 174.246 201.099 175.76 197.937 173.842C197.759 173.733 197.588 173.616 197.424 173.493H197.397Z" fill="#BC773E"/>
</g>
<mask id="mask6_4097_8649" style="mask-type:luminance" maskUnits="userSpaceOnUse" x="162" y="138" width="19" height="18">
<path d="M180.354 145.061L180.197 144.958C177.827 143.52 174.466 144.657 172.683 147.5C170.9 150.343 171.372 153.666 173.605 155.153L164.582 149.11C162.355 147.617 161.924 144.239 163.659 141.457C165.395 138.676 168.789 137.477 171.173 138.916L171.331 139.019L180.354 145.061Z" fill="white"/>
</mask>
<g mask="url(#mask6_4097_8649)">
<path d="M180.354 145.061L171.33 139.018L171.173 138.916C168.803 137.477 165.442 138.614 163.659 141.457C161.877 144.301 162.355 147.623 164.582 149.11L173.605 155.153C171.371 153.659 170.948 150.282 172.683 147.5C174.418 144.718 177.813 143.52 180.197 144.958L180.354 145.061Z" fill="#BC773E"/>
</g>
<mask id="mask7_4097_8649" style="mask-type:luminance" maskUnits="userSpaceOnUse" x="171" y="139" width="12" height="14">
<path d="M171.33 139.019L180.354 145.061C182.588 146.555 183.011 149.932 181.276 152.714L172.252 146.692C173.988 143.89 173.564 140.526 171.33 139.019Z" fill="white"/>
</mask>
<g mask="url(#mask7_4097_8649)">
<path d="M181.256 152.714L172.252 146.692C173.988 143.91 173.564 140.526 171.33 139.039L180.354 145.082C182.588 146.575 183.011 149.953 181.276 152.734L181.256 152.714Z" fill="#BC773E"/>
</g>
<path d="M172.253 146.692C170.483 149.535 167.129 150.672 164.739 149.234C162.348 147.795 161.876 144.321 163.652 141.478C165.428 138.635 168.782 137.498 171.166 138.936C173.55 140.375 174.029 143.828 172.253 146.692Z" fill="#BC773E"/>
<mask id="mask8_4097_8649" style="mask-type:luminance" maskUnits="userSpaceOnUse" x="164" y="146" width="18" height="10">
<path d="M173.619 155.153L164.595 149.11L164.759 149.213C167.129 150.652 170.483 149.514 172.273 146.671L181.256 152.714C179.486 155.557 176.126 156.694 173.742 155.255L173.619 155.153Z" fill="white"/>
</mask>
<g mask="url(#mask8_4097_8649)">
<path d="M173.619 155.153L164.595 149.11L164.759 149.213C167.129 150.652 170.483 149.514 172.273 146.671L181.256 152.714C179.486 155.557 176.126 156.694 173.742 155.255L173.584 155.153H173.619Z" fill="#BC773E"/>
</g>
<path d="M172.375 142.307C171.692 143.944 171.604 144.52 170.278 145.513C178.004 150.514 206.81 169.362 206.81 169.362C206.81 169.362 208.504 166.285 207.916 164.059C207.11 162.161 172.375 142.307 172.375 142.307Z" fill="#DB8B49"/>
<path d="M166.59 104.119L156.623 98.3098C161.043 100.886 163.782 106.36 163.803 114.136C163.844 129.79 152.873 148.863 139.28 156.728C132.449 160.688 126.253 161.058 121.779 158.448L131.745 164.258C136.22 166.861 142.415 166.498 149.246 162.538C162.812 154.673 173.81 135.6 173.742 119.973C173.742 112.169 171.009 106.695 166.59 104.119Z" fill="url(#paint0_linear_4097_8649)"/>
<path opacity="0.64" d="M146.268 160.812C159.854 152.94 170.859 133.873 170.784 118.219C170.709 102.564 159.69 96.2477 146.104 104.113C132.517 111.978 121.513 131.051 121.588 146.705C121.663 162.36 132.681 168.677 146.268 160.812Z" fill="#6792D1"/>
<path opacity="0.64" d="M161.61 101.475C165.025 104.373 167.034 109.354 167.075 116.061C167.122 131.715 156.145 150.782 142.559 158.654C136.691 162.079 131.294 162.798 127.052 161.291C131.581 165.162 138.515 165.306 146.288 160.812C159.875 152.94 170.879 133.873 170.804 118.219C170.757 109.326 167.184 103.448 161.61 101.475Z" fill="#85A9D4"/>
<path d="M149.075 101.687C164.65 92.6645 177.321 99.906 177.369 117.856C177.417 135.805 164.861 157.653 149.26 166.69C133.658 175.726 121.014 168.471 120.966 150.521C120.918 132.572 133.501 110.703 149.075 101.687ZM149.246 162.538C162.812 154.673 173.81 135.6 173.742 119.973C173.673 104.346 162.648 98.0015 149.062 105.866C135.475 113.731 124.47 132.805 124.539 148.459C124.607 164.114 135.639 170.43 149.219 162.565L149.246 162.538Z" fill="#4B476E"/>
<path d="M159.178 93.9388C154.048 90.9518 146.951 91.3766 139.109 95.9119C123.535 104.935 110.952 126.796 111 144.746C111 153.652 114.163 159.935 119.197 162.887L129.163 168.697C124.102 165.744 120.966 159.469 120.966 150.556C120.912 132.606 133.501 110.738 149.075 101.722C156.917 97.1794 164.014 96.7615 169.144 99.7485L159.178 93.9388Z" fill="url(#paint1_linear_4097_8649)"/>
<g style="mix-blend-mode:screen" opacity="0.64">
<path d="M151.954 120.788C155.536 116.587 156.114 111.185 153.244 108.724C150.374 106.262 145.143 107.672 141.56 111.873C137.978 116.074 137.4 121.476 140.27 123.938C143.14 126.4 148.371 124.99 151.954 120.788Z" fill="#A6B1C7"/>
</g>
</g>
</g>
<defs>
<linearGradient id="paint0_linear_4097_8649" x1="135.495" y1="166.429" x2="170.336" y2="106.25" gradientUnits="userSpaceOnUse">
<stop stop-color="#494570"/>
<stop offset="0.01" stop-color="#504C75"/>
<stop offset="0.03" stop-color="#524E76"/>
<stop offset="0.14" stop-color="#524E76"/>
<stop offset="0.23" stop-color="#63608A"/>
<stop offset="0.33" stop-color="#615E88"/>
<stop offset="0.37" stop-color="#5C5881"/>
<stop offset="0.39" stop-color="#524E76"/>
<stop offset="0.93" stop-color="#524E76"/>
<stop offset="0.99" stop-color="#44416E"/>
</linearGradient>
<linearGradient id="paint1_linear_4097_8649" x1="114.374" y1="160.085" x2="154.326" y2="91.0947" gradientUnits="userSpaceOnUse">
<stop offset="0.01" stop-color="#44416E"/>
<stop offset="0.07" stop-color="#524E76"/>
<stop offset="0.61" stop-color="#524E76"/>
<stop offset="0.63" stop-color="#5C5881"/>
<stop offset="0.67" stop-color="#615E88"/>
<stop offset="0.77" stop-color="#63608A"/>
<stop offset="0.86" stop-color="#524E76"/>
<stop offset="0.97" stop-color="#524E76"/>
<stop offset="0.99" stop-color="#504C75"/>
<stop offset="1" stop-color="#46426E"/>
</linearGradient>
<clipPath id="clip0_4097_8649">
<rect width="222.84" height="211.15" fill="white"/>
</clipPath>
<clipPath id="clip1_4097_8649">
<rect width="99" height="83" fill="white" transform="translate(111 92)"/>
</clipPath>
</defs>
</svg>
