<svg width="223" height="212" viewBox="0 0 223 212" fill="none" xmlns="http://www.w3.org/2000/svg">
<g clip-path="url(#clip0_4097_8564)">
<path d="M222.84 139.2L222.82 145.21L109.36 211.15L109.37 205.13L222.84 139.2Z" fill="#D7D7D7"/>
<path d="M109.37 205.13L109.36 211.15L0 148.01L0.02 142L109.37 205.13Z" fill="#AEB5B7"/>
<path d="M222.84 139.2L109.37 205.13L0.0200195 142L113.48 76.0601L222.84 139.2Z" fill="#D0D0D0"/>
<path d="M193.96 139.56L109.91 188.41L28.8999 141.63L112.95 92.79L193.96 139.56Z" fill="#E2E2E1"/>
<path d="M106.25 6.27002L105.93 119.1L98.3 123.53L98.62 10.71L106.25 6.27002Z" fill="#48494F"/>
<path d="M106.25 6.26995L98.6201 10.71L96.3401 9.38995L103.98 4.94995L106.25 6.26995Z" fill="#8C9BCE"/>
<path d="M98.62 10.7099L98.3 123.53L96.02 122.22L96.34 9.38989L98.62 10.7099Z" fill="#455797"/>
<path d="M136.5 13.8401L136.18 126.67L116.73 115.44L117.05 2.61011L136.5 13.8401Z" fill="#6E717A"/>
<path d="M141.01 13.8401L140.69 126.67L136.7 128.99L137.02 16.1601L141.01 13.8401Z" fill="#8B8F9A"/>
<path d="M136.5 13.8401L136.18 126.67L132.2 128.99L132.52 16.1601L136.5 13.8401Z" fill="#48494F"/>
<path d="M150.89 22.1499L150.57 134.98L146.58 137.29L146.9 24.4599L150.89 22.1499Z" fill="#8B8F9A"/>
<path d="M146.9 24.4599L146.58 137.29L132.2 128.99L132.52 16.1599L146.9 24.4599Z" fill="#6E717A"/>
<path d="M65.6 29.8901L65.28 142.72L63.01 141.41L63.33 28.5801L65.6 29.8901Z" fill="#455797"/>
<path d="M73.24 25.45L72.92 138.28L65.28 142.72L65.6 29.8899L73.24 25.45Z" fill="#48494F"/>
<path d="M73.2401 25.4499L65.6001 29.8899L63.3301 28.5799L70.9601 24.1399L73.2401 25.4499Z" fill="#8C9BCE"/>
<path d="M170.34 33.3799L170.02 146.21L150.57 134.98L150.89 22.1499L170.34 33.3799Z" fill="#6E717A"/>
<path d="M117.05 2.61011L116.73 115.44L59.01 148.99L59.33 36.1601L117.05 2.61011Z" fill="#8B8F9A"/>
<path d="M82.76 45.0701L82.44 157.9L78.46 160.22L78.78 47.3901L82.76 45.0701Z" fill="#48494F"/>
<path d="M78.79 49.9999L78.47 162.83L54.5 148.99L54.82 36.1599L78.79 49.9999Z" fill="#9DCBD5"/>
<path d="M82.77 47.6799L82.45 160.51L78.47 162.83L78.79 49.9999L82.77 47.6799Z" fill="#D7E9EF"/>
<path d="M92.64 53.3799L92.32 166.21L82.45 160.51L82.77 47.6799L92.64 53.3799Z" fill="#79B9C4"/>
<path d="M97.1501 53.3799L96.8301 166.21L92.8401 168.52L93.1701 55.6899L97.1501 53.3799Z" fill="#8B8F9A"/>
<path d="M170.34 33.3799L170.02 146.21L112.3 179.76L112.62 66.9299L170.34 33.3799Z" fill="#48494F"/>
<path d="M170.34 33.3801L112.62 66.9301L93.1701 55.6901L97.1501 53.3801L82.7601 45.0701L78.7801 47.3901L59.3301 36.1601L117.05 2.61011L136.5 13.8401L132.52 16.1601L146.9 24.4601L150.89 22.1501L170.34 33.3801Z" fill="#D7E9EF"/>
<path d="M174.85 33.3799L174.53 146.21L112.31 182.37L112.63 69.5399L174.85 33.3799Z" fill="#D7E9EF"/>
<path d="M150.88 19.54L174.88 33.38L112.63 69.54L88.63 55.7L92.63 53.38L82.76 47.68L78.76 50L54.76 36.16L65.6 29.89L73.24 25.45L98.62 10.71L106.25 6.27L117 0L141 13.84L137 16.16L146.87 21.85L150.88 19.54ZM112.62 66.93L170.34 33.38L150.89 22.15L146.89 24.46L132.51 16.16L136.51 13.84L117.05 2.61L59.33 36.16L78.78 47.39L82.78 45.07L97.17 53.38L93.17 55.69L112.63 66.93" fill="#FDFEFF"/>
<path d="M112.63 69.54L112.31 182.37L88.3301 168.53L88.6601 55.7L112.63 69.54Z" fill="#9DCBD5"/>
<path d="M166.34 40.96L166.02 153.79L158.39 158.23L158.71 45.4L166.34 40.96Z" fill="#6875B4"/>
<path d="M158.71 45.3998L158.39 158.23L156.11 156.91L156.43 44.0798L158.71 45.3998Z" fill="#455797"/>
<path d="M166.34 40.9599L158.71 45.3999L156.43 44.0799L164.07 39.6499L166.34 40.9599Z" fill="#8C9BCE"/>
<path d="M133.33 60.1501L133.01 172.98L125.37 177.41L125.69 64.5801L133.33 60.1501Z" fill="#6875B4"/>
<path d="M125.69 64.58L125.37 177.41L123.1 176.1L123.42 63.27L125.69 64.58Z" fill="#455797"/>
<path d="M133.33 60.1501L125.69 64.5801L123.42 63.2701L131.05 58.8301L133.33 60.1501Z" fill="#8C9BCE"/>
<path d="M103.34 75.11L103.31 85.71L94.0901 80.39L94.1201 69.79L103.34 75.11Z" fill="#79B9C4"/>
<path d="M103.32 83.98L103.31 85.71L94.0901 80.39L94.1101 69.79L95.5101 70.6L95.4901 79.47L103.32 83.98Z" fill="#599EA5"/>
<path d="M103.34 100.85L103.31 111.45L94.0901 106.12L94.1201 95.53L103.34 100.85Z" fill="#79B9C4"/>
<path d="M103.32 109.72L103.31 111.45L94.0901 106.12L94.1101 95.52L95.5101 96.33L95.4901 105.21L103.32 109.72Z" fill="#599EA5"/>
<path d="M103.34 126.59L103.31 137.19L94.0901 131.86L94.1201 121.26L103.34 126.59Z" fill="#79B9C4"/>
<path d="M103.32 135.46L103.31 137.19L94.0901 131.86L94.1101 121.26L95.5101 122.07L95.4901 130.94L103.32 135.46Z" fill="#599EA5"/>
<path d="M103.34 152.32L103.31 162.92L94.0901 157.6L94.1201 147L103.34 152.32Z" fill="#79B9C4"/>
<path d="M103.32 161.19L103.31 162.92L94.0901 157.6L94.1101 147L95.5101 147.81L95.4901 156.68L103.32 161.19Z" fill="#599EA5"/>
<path d="M71.05 57.7599L71.02 68.3599L61.79 63.0399L61.82 52.4399L71.05 57.7599Z" fill="#79B9C4"/>
<path d="M71.02 66.6299V68.3599L61.79 63.0399L61.82 52.4399L63.22 53.2399L63.2 62.1199L71.02 66.6299Z" fill="#599EA5"/>
<path d="M71.05 83.4999L71.02 94.0999L61.79 88.7699L61.82 78.1699L71.05 83.4999Z" fill="#79B9C4"/>
<path d="M71.02 92.3699V94.0999L61.79 88.7699L61.82 78.1699L63.22 78.9799L63.2 87.8499L71.02 92.3699Z" fill="#599EA5"/>
<path d="M71.05 109.24L71.02 119.83L61.79 114.51L61.82 103.91L71.05 109.24Z" fill="#79B9C4"/>
<path d="M71.02 118.11V119.84L61.79 114.51L61.82 103.91L63.22 104.72L63.2 113.59L71.02 118.11Z" fill="#599EA5"/>
<path d="M71.05 134.97L71.02 145.57L61.79 140.25L61.82 129.65L71.05 134.97Z" fill="#79B9C4"/>
<path d="M71.02 143.84V145.57L61.79 140.25L61.82 129.65L63.22 130.46L63.2 139.33L71.02 143.84Z" fill="#599EA5"/>
<path d="M140.34 66.7599L140.37 77.3599L149.59 72.0299L149.56 61.4299L140.34 66.7599Z" fill="#79B9C4"/>
<path d="M140.36 75.6299L140.37 77.3599L149.59 72.0299L149.57 61.4299L148.17 62.2399L148.19 71.1099L140.36 75.6299Z" fill="#599EA5"/>
<path d="M140.34 92.4999L140.37 103.09L149.59 97.7699L149.56 87.1699L140.34 92.4999Z" fill="#79B9C4"/>
<path d="M140.36 101.37L140.37 103.09L149.59 97.7699L149.57 87.1699L148.17 87.9799L148.19 96.8499L140.36 101.37Z" fill="#599EA5"/>
<path d="M140.34 118.23L140.37 128.83L149.59 123.5L149.56 112.91L140.34 118.23Z" fill="#79B9C4"/>
<path d="M140.36 127.1L140.37 128.83L149.59 123.5L149.57 112.9L148.17 113.71L148.19 122.59L140.36 127.1Z" fill="#599EA5"/>
<path d="M140.34 143.97L140.37 154.57L149.59 149.24L149.56 138.64L140.34 143.97Z" fill="#79B9C4"/>
<path d="M140.36 152.84L140.37 154.57L149.59 149.24L149.57 138.64L148.17 139.45L148.19 148.32L140.36 152.84Z" fill="#599EA5"/>
<path d="M117.05 2.61011V7.31011L132.52 16.1601L136.5 13.8401L117.05 2.61011Z" fill="#9DCBD5"/>
<path d="M117.05 7.31011L63.3301 38.4701L59.3301 36.1601L117.05 2.61011V7.31011Z" fill="#C2DEE5"/>
<path d="M132.52 16.1599V20.8599L146.9 29.1699V24.4599L132.52 16.1599Z" fill="#9DCBD5"/>
<path d="M146.9 29.1699L150.89 26.8499V22.1499L146.9 24.4599V29.1699Z" fill="#C2DEE5"/>
<path d="M150.89 26.8499L166.17 35.6499L170.34 33.3799L150.89 22.1499V26.8499Z" fill="#9DCBD5"/>
<path d="M98.3901 32.3201V36.2801L115.6 46.2201V42.2501L98.3901 32.3201Z" fill="#9DCBD5"/>
<path d="M131.28 33.1399L115.6 42.2499V46.2199L131.28 37.0999V33.1399Z" fill="#C2DEE5"/>
<path d="M131.28 33.1399L115.6 42.25L98.3901 32.32L114.07 23.2L131.28 33.1399Z" fill="#EEF6F8"/>
<g clip-path="url(#clip1_4097_8564)">
<path d="M197.595 96.2442L203.939 99.9406C203.531 99.7518 203.081 99.6756 202.635 99.72C202.188 99.7643 201.762 99.9276 201.399 100.193L195.063 96.4886C195.425 96.2245 195.85 96.0626 196.296 96.0196C196.741 95.9766 197.189 96.0542 197.595 96.2442Z" fill="#FFB44F"/>
<path d="M161.574 201.965L154.743 198.024C143.541 191.498 137.118 177.532 137.071 159.043L143.407 162.747C143.462 181.268 150.372 195.439 161.574 201.965Z" fill="#F18F3A"/>
<path d="M143.407 162.739L137.071 159.035L137 134.209L143.336 137.913L143.407 162.739Z" fill="#F18F3A"/>
<path d="M146.889 131.742L140.553 128.045L195.063 96.4885L201.399 100.193L146.889 131.742Z" fill="#FFB44F"/>
<path d="M143.336 137.913L136.969 134.209C137.031 132.973 137.386 131.769 138.004 130.698C138.622 129.626 139.485 128.717 140.522 128.045L146.858 131.742C145.83 132.422 144.975 133.335 144.364 134.407C143.752 135.478 143.4 136.68 143.336 137.913Z" fill="#FFB44F"/>
<path d="M198.176 106.774C199.623 105.938 200.794 106.608 200.802 108.248L200.857 128.739C200.912 149.428 192.823 173.292 178.68 194.154L175.953 198.182C175.553 198.819 175.016 199.357 174.38 199.758C174.146 199.919 173.882 200.03 173.603 200.082C173.324 200.135 173.037 200.13 172.761 200.065L170.009 199.183C155.796 194.706 147.597 180.267 147.542 159.61L147.479 139.119C147.531 138.216 147.795 137.338 148.248 136.556C148.701 135.774 149.332 135.111 150.089 134.619L198.176 106.774ZM199.466 129.519L199.403 109.028C199.403 108.24 198.852 107.94 198.176 108.334L150.073 136.203C149.717 136.432 149.421 136.744 149.209 137.111C148.998 137.478 148.876 137.891 148.855 138.315L148.91 158.806C148.965 178.841 157.07 193.09 170.827 197.425L173.578 198.284C173.712 198.318 173.851 198.324 173.987 198.299C174.123 198.275 174.251 198.221 174.365 198.142C174.68 197.959 174.949 197.706 175.151 197.401L177.886 193.374C191.581 173.119 199.576 149.546 199.521 129.535L199.466 129.519Z" fill="white"/>
<path d="M198.239 143.824C195.535 160.233 188.366 177.777 177.839 193.39L175.088 197.401C174.891 197.712 174.621 197.969 174.302 198.15V157.664L198.239 143.824Z" fill="#FFC358"/>
<path d="M201.352 100.138C203.318 98.9948 204.921 99.9091 204.921 102.179L204.992 127.005C205.055 148.592 196.471 173.946 181.707 195.738L176.534 203.391C175.978 204.254 175.234 204.979 174.357 205.511C174.042 205.726 173.685 205.873 173.31 205.942C172.935 206.011 172.55 206.002 172.179 205.913L166.983 204.266C152.149 199.6 143.446 184.255 143.399 162.668L143.328 137.842C143.391 136.606 143.746 135.403 144.364 134.331C144.982 133.259 145.845 132.35 146.882 131.679L201.352 100.138ZM200.857 128.715L200.802 108.224C200.802 106.585 199.623 105.915 198.176 106.75L150.065 134.603C149.309 135.095 148.678 135.759 148.225 136.541C147.771 137.322 147.508 138.2 147.456 139.103L147.518 159.595C147.573 180.259 155.773 194.69 169.986 199.167L172.737 200.05C173.014 200.114 173.301 200.12 173.579 200.067C173.858 200.014 174.123 199.903 174.357 199.742C174.992 199.341 175.529 198.803 175.929 198.166L178.657 194.138C192.807 173.253 200.889 149.388 200.834 128.723L200.857 128.715Z" fill="#FFC358"/>
<path d="M174.341 157.664V198.15C174.227 198.228 174.099 198.281 173.963 198.305C173.828 198.33 173.689 198.325 173.555 198.292L170.811 197.441C160.222 194.083 152.974 184.831 150.183 171.637L174.341 157.664Z" fill="#F18F3A"/>
<path d="M174.341 122.15V157.664L150.199 171.637C149.338 167.404 148.904 163.095 148.902 158.775L148.847 138.284C148.871 137.861 148.994 137.449 149.208 137.083C149.421 136.718 149.717 136.408 150.073 136.179L174.341 122.15Z" fill="#FFC358"/>
<path d="M199.458 129.527C199.449 134.319 199.042 139.101 198.239 143.824L174.341 157.664V122.15L198.184 108.358C198.853 107.972 199.395 108.279 199.395 109.052L199.458 129.527Z" fill="#F18F3A"/>
</g>
</g>
<defs>
<clipPath id="clip0_4097_8564">
<rect width="222.84" height="211.15" fill="white"/>
</clipPath>
<clipPath id="clip1_4097_8564">
<rect width="68" height="110" fill="white" transform="translate(137 96)"/>
</clipPath>
</defs>
</svg>
