<svg width="120" height="232" viewBox="0 0 120 232" fill="none" xmlns="http://www.w3.org/2000/svg">
<path d="M108.103 231.411L37.4014 190.726C35.8866 189.861 36.0775 188.338 37.8263 187.331L41.8719 185.023C43.6145 184.016 46.2623 183.906 47.7709 184.777L118.479 225.462C119.988 226.327 119.797 227.85 118.054 228.857L114.039 231.165C112.26 232.172 109.606 232.283 108.103 231.411Z" fill="#80C5FF"/>
<path d="M115.055 38.0202L50.0001 0.571115C48.7747 -0.134892 47.6725 -0.15331 46.7981 0.331687L40.3818 4.0152L47.9311 9.87199L49.7784 9.40541V163.137C49.7784 166.741 51.9828 170.927 54.7045 172.487L111.749 214.117V216.714L118.387 212.852V212.821C119.354 212.207 119.963 210.851 119.963 208.966V47.3702C119.969 43.7665 117.771 39.5795 115.055 38.0202Z" fill="#999999"/>
<path d="M105.111 51.7412V44.4846L98.7129 49.2793L70.7511 37.6149L49.8152 22.4143V9.42373L47.9679 9.88417L40.4001 4.03352L46.7979 0.331586C47.66 -0.147271 48.7561 -0.128853 49.9814 0.564875L115.037 38.0139C116.823 39.0392 118.38 41.2063 119.23 43.5822L105.111 51.7412Z" fill="#E6E6E6"/>
<path d="M108.602 216.388L43.5406 178.939C40.8313 177.38 38.6145 173.193 38.6145 169.589V8.02395C38.6145 4.42024 40.8128 2.76266 43.5406 4.34043L108.602 41.7465C111.312 43.312 113.528 47.4989 113.528 51.1026V212.686C113.51 216.296 111.312 217.941 108.602 216.388Z" fill="#CCCCCC"/>
<path d="M40.0676 170.541V8.72393C40.0676 6.09635 41.6686 4.88693 43.6452 6.02268L108.497 43.3551C110.474 44.4909 112.075 47.5482 112.075 50.1757V211.993C112.075 214.62 110.474 215.823 108.497 214.688L43.6452 177.355C41.6686 176.195 40.0676 173.168 40.0676 170.541Z" fill="#333333"/>
<path d="M110.172 51.8885V208.634C110.172 210.967 108.522 211.888 106.478 210.722L45.6526 175.698C44.5793 175.005 43.6853 174.07 43.0433 172.968C42.4012 171.866 42.0294 170.628 41.958 169.356V12.6284C41.958 10.2955 43.6083 9.35621 45.6526 10.5288L56.7363 16.932C57.2467 17.2613 57.607 17.7771 57.74 18.3685L58.2511 20.7076C58.5195 21.9283 59.0318 23.0826 59.7576 24.1016C60.4834 25.1205 61.4076 25.9832 62.4752 26.638L89.5996 42.25C91.6686 43.441 93.4481 42.9867 93.8238 41.1818L94.3348 39.4321C94.4642 38.9962 94.8706 38.8796 95.3385 39.1497L106.527 45.5529C107.59 46.25 108.474 47.1867 109.107 48.2873C109.741 49.3879 110.105 50.6215 110.172 51.8885Z" fill="#80C5FF"/>
<g style="mix-blend-mode:multiply">
<path d="M41.9582 28.8358V49.3285L38.627 47.413V26.9204L41.9582 28.8358Z" fill="#CCCCCC"/>
</g>
<path d="M97.1922 63.8476L97.1491 77.845C97.1491 79.6254 95.8806 80.3375 94.3289 79.4473L41.989 49.3039V28.8542L94.4151 59.0345C95.2248 59.5628 95.8982 60.2739 96.3806 61.1102C96.8631 61.9464 97.1412 62.8842 97.1922 63.8476Z" fill="#0081ED"/>
<g style="mix-blend-mode:multiply">
<path d="M41.9582 64.7992V85.2918L38.627 83.3764V62.8838L41.9582 64.7992Z" fill="#CCCCCC"/>
</g>
<path d="M71.059 84.721L71.0159 98.7183C71.0159 100.499 69.7413 101.211 68.1957 100.321L41.958 85.2919V64.7993L68.2511 79.8649C69.0722 80.394 69.7551 81.1104 70.2434 81.9548C70.7316 82.7992 71.0112 83.7474 71.059 84.721Z" fill="#0081ED"/>
<g style="mix-blend-mode:multiply">
<path d="M41.9582 133.742V154.235L38.627 152.32V131.827L41.9582 133.742Z" fill="#CCCCCC"/>
</g>
<path d="M71.059 153.664L71.0159 167.668C71.0159 169.442 69.7413 170.16 68.1957 169.264L41.958 154.235V133.742L68.2511 148.814C69.0714 149.343 69.7538 150.058 70.242 150.901C70.7302 151.745 71.0103 152.692 71.059 153.664Z" fill="#0081ED"/>
<path d="M87.4385 158.729C92.9804 161.921 97.457 169.651 97.4385 175.98C97.4201 182.31 92.9127 184.894 87.3708 181.702C81.8289 178.509 77.3646 170.792 77.3831 164.438C77.4016 158.084 81.8967 155.549 87.4385 158.729Z" fill="#0081ED"/>
<path d="M87.4385 89.7122C92.9804 92.9046 97.457 100.628 97.4385 106.963C97.4201 113.299 92.9127 115.871 87.3708 112.685C81.8289 109.499 77.3646 101.77 77.3831 95.4216C77.4016 89.0737 81.8967 86.5259 87.4385 89.7122Z" fill="#0081ED"/>
<g style="mix-blend-mode:multiply">
<path d="M41.9582 98.1718V118.664L38.627 116.749V96.2563L41.9582 98.1718Z" fill="#CCCCCC"/>
</g>
<path d="M97.1922 133.221L97.1491 147.224C97.1491 149.004 95.8806 149.717 94.3289 148.82L41.989 118.683V98.1719L94.4151 128.352C95.2321 128.886 95.9101 129.606 96.3929 130.452C96.8758 131.299 97.1498 132.248 97.1922 133.221Z" fill="#0081ED"/>
<path d="M64.9815 24.3664C64.9815 25.5943 64.1009 26.1161 63.011 25.4838C62.4381 25.1144 61.9606 24.6157 61.6172 24.028C61.2738 23.4402 61.0741 22.7801 61.0344 22.1011C61.0344 20.8732 61.9211 20.3575 63.011 20.9837C63.5845 21.3519 64.0621 21.8505 64.4047 22.4386C64.7472 23.0266 64.9449 23.6874 64.9815 24.3664Z" fill="#666666"/>
<path d="M64.0947 23.8507C64.0947 24.5322 63.6083 24.8085 63.011 24.4647C62.6991 24.2629 62.4387 23.9914 62.2505 23.6716C62.0624 23.3519 61.9517 22.9928 61.9272 22.6229C61.9272 21.9415 62.4137 21.6652 63.011 22.009C63.3229 22.2107 63.5833 22.4823 63.7715 22.802C63.9596 23.1218 64.0703 23.4809 64.0947 23.8507Z" fill="#333333"/>
<path d="M85.548 33.4341L66.25 22.3221C66.0738 22.197 65.9297 22.0324 65.8291 21.8415C65.7286 21.6506 65.6745 21.4388 65.6711 21.2232V20.4435C65.6711 20.0199 65.9298 19.8296 66.25 20.0138L85.548 31.1196C85.7241 31.2447 85.8683 31.4093 85.9688 31.6002C86.0694 31.7911 86.1235 32.0029 86.1268 32.2185V32.9982C86.1268 33.4218 85.8682 33.6121 85.548 33.4341Z" fill="black"/>
<path d="M118.165 72.2707C117.925 72.1602 117.66 72.1155 117.397 72.1414C117.134 72.1673 116.882 72.2628 116.669 72.418C116.056 72.8142 115.546 73.3496 115.181 73.9803C114.816 74.611 114.606 75.3191 114.569 76.0463L114.624 95.2497C114.598 95.5081 114.641 95.769 114.749 96.0053C114.857 96.2416 115.027 96.4449 115.24 96.5942L116.404 97.2695C116.193 97.118 116.025 96.9144 115.917 96.6786C115.809 96.4428 115.765 96.1831 115.788 95.925L115.763 76.74C115.803 76.0134 116.014 75.3063 116.379 74.6759C116.744 74.0456 117.252 73.5097 117.863 73.1118C118.079 72.9578 118.331 72.8631 118.595 72.8372C118.858 72.8114 119.124 72.8552 119.366 72.9644L118.165 72.2707Z" fill="#E6E6E6"/>
<path d="M117.832 73.0933C118.996 72.4241 119.944 72.9643 119.944 74.3211L120 93.5245C119.961 94.2504 119.75 94.9569 119.385 95.5863C119.02 96.2157 118.511 96.7503 117.9 97.1466C116.736 97.8219 115.794 97.2694 115.788 95.9495L115.763 76.7399C115.797 76.0128 116.002 75.3038 116.361 74.6702C116.721 74.0367 117.225 73.4965 117.832 73.0933Z" fill="#BFBFBF"/>
<path d="M118.177 75.2543C119.132 74.7079 119.908 75.1438 119.908 76.2365L119.957 91.9897C119.923 92.5858 119.749 93.1658 119.45 93.6829C119.15 94.2 118.734 94.6399 118.233 94.9672C117.278 95.5136 116.502 95.0654 116.502 93.9788L116.453 78.2256C116.486 77.6301 116.659 77.0507 116.959 76.5344C117.258 76.0182 117.676 75.5796 118.177 75.2543Z" fill="#CCCCCC"/>
<path d="M11.644 14.2062C8.86076 12.6038 6.34229 12.4565 4.51963 13.5063L2.9248 14.4395C4.7721 13.3835 7.2721 13.5309 10.0492 15.127C15.5911 18.3194 20.0677 26.0487 20.0492 32.3843C20.0492 35.5399 18.9285 37.7561 17.1243 38.7998L18.7191 37.8789C20.5172 36.8352 21.6379 34.6128 21.644 31.4573C21.6625 25.1278 17.1859 17.3985 11.644 14.2062Z" fill="#80C5FF"/>
<path d="M10.0493 15.1271C15.5911 18.3195 20.0677 26.0487 20.0493 32.3843C20.0308 38.72 15.5296 41.2923 9.98768 38.0999C4.44581 34.9076 0 27.1906 0 20.8734C0 14.5561 4.5197 11.947 10.0493 15.1271Z" fill="#0081ED"/>
<path d="M15.431 38.8304V39.3952C13.8547 39.6531 11.9889 39.254 9.98766 38.0999C7.53558 36.6113 5.45186 34.5905 3.8916 32.1878C3.8916 30.0514 5.41254 29.1981 7.2783 30.2601L12.0566 33.0105C13.0384 33.6478 13.8556 34.5069 14.4419 35.5181C15.0282 36.5294 15.3671 37.6642 15.431 38.8304Z" fill="#1F2125"/>
<path d="M10.9298 34.0174C10.2833 34.4656 9.16873 33.8517 8.46676 32.6729L8.42366 32.6054C8.12908 32.1119 7.9639 31.5524 7.94336 30.9785V27.9089L11.3424 29.8612V32.9308C11.3724 33.132 11.3502 33.3375 11.278 33.5277C11.2058 33.7179 11.0859 33.8865 10.9298 34.0174Z" fill="#FFE5CC"/>
<path d="M6.55776 24.1884C6.95185 25.275 6.88412 26.1652 6.40382 26.1775C5.92353 26.1898 5.22156 25.318 4.82747 24.2314C4.43338 23.1447 4.50111 22.2607 4.98141 22.2484C5.46171 22.2361 6.15752 23.1079 6.55776 24.1884Z" fill="#585AA7"/>
<path d="M12.5985 27.6694C12.4072 28.0045 12.3198 28.3886 12.3472 28.7732C12.3746 29.1578 12.5156 29.5256 12.7524 29.8304C12.8447 29.9608 12.9694 30.065 13.1142 30.1329C13.2591 30.2007 13.4191 30.2299 13.5787 30.2175C13.7382 30.2051 13.8918 30.1516 14.0244 30.0622C14.157 29.9729 14.264 29.8507 14.3349 29.7077C14.5218 29.3692 14.605 28.9835 14.5743 28.5983C14.5437 28.2132 14.4005 27.8454 14.1625 27.5405C14.0689 27.4147 13.9447 27.3148 13.8015 27.2502C13.6584 27.1856 13.5011 27.1584 13.3445 27.1713C13.188 27.1843 13.0373 27.2368 12.9067 27.3239C12.7762 27.4111 12.6701 27.53 12.5985 27.6694Z" fill="#585AA7"/>
<path d="M12.9865 23.2491C12.2648 21.5925 11.0615 20.1896 9.53203 19.2218C8.14656 18.4176 6.8473 18.4544 6.05912 19.3078C5.88967 19.528 5.76727 19.7806 5.6995 20.0498C5.63172 20.3191 5.61999 20.5993 5.66504 20.8732L6.15765 26.0302C6.2897 27.0478 6.67029 28.0175 7.26602 28.8542L7.75863 29.5725C8.80543 31.095 10.2586 31.9606 11.3301 31.6905L11.8904 31.5493C12.24 31.4348 12.5427 31.2099 12.7527 30.9086C12.9627 30.6073 13.0685 30.2461 13.0542 29.8794L13.436 25.3364C13.4735 24.6437 13.3337 23.9529 13.0296 23.3289L12.9865 23.2491Z" fill="#FFE5CC"/>
<path d="M7.5062 18.6632C7.45694 18.7431 7.41384 18.8229 7.37073 18.9088C7.3385 19.0204 7.326 19.1367 7.33379 19.2526C7.32995 19.513 7.35891 19.7729 7.42 20.0261C7.51119 20.4146 7.66508 20.7858 7.87566 21.1251C8.17792 21.5101 8.59012 21.7948 9.05793 21.9416C9.54047 22.1065 9.94999 22.4344 10.2156 22.8686C10.4224 23.3069 10.5095 23.7919 10.468 24.2745C10.4562 24.5285 10.4959 24.7824 10.5848 25.0208C10.6737 25.2592 10.8099 25.4772 10.9853 25.6619C11.2993 25.9198 11.601 25.8215 11.8843 25.8584C12.205 25.9174 12.5032 26.0631 12.7464 26.2797C12.9897 26.4962 13.1686 26.7752 13.2636 27.0862C13.3248 27.3687 13.4199 27.6429 13.5468 27.9027C13.5729 27.8115 13.6321 27.7332 13.713 27.6833C13.7938 27.6333 13.8905 27.6152 13.984 27.6326C14.7291 27.7493 14.489 29.2902 14.3227 29.5542C14.2134 29.7415 14.0787 29.913 13.9225 30.0637C13.8465 30.133 13.7525 30.1795 13.6512 30.198C13.5499 30.2164 13.4454 30.2061 13.3498 30.1681C13.2636 30.1681 13.0542 29.9594 13.0111 30.0208C12.9479 30.1006 12.9018 30.1925 12.8757 30.2909C12.8457 30.445 12.8457 30.6034 12.8757 30.7575C12.9345 31.0229 13.0618 31.2684 13.2451 31.4696C13.406 31.6514 13.6031 31.7978 13.8239 31.8993C13.9932 31.9927 14.1857 32.0359 14.3788 32.024C14.5718 32.012 14.7575 31.9453 14.9138 31.8318C15.0622 31.6837 15.1773 31.5058 15.2516 31.3101C15.3259 31.1143 15.3577 30.905 15.3449 30.6961C15.327 30.3728 15.2775 30.052 15.1971 29.7383C15.1315 29.4452 15.1315 29.1413 15.1971 28.8482C15.3202 28.4 15.6466 28.1483 15.7821 27.7063C15.9207 27.0833 15.8357 26.4315 15.5419 25.8645C15.0124 24.7042 13.9717 23.8324 13.4298 22.6721C13.1589 22.0889 13.0419 21.4811 12.7648 20.8979C12.4498 20.2627 12.0077 19.6986 11.4656 19.2403C11.1187 18.9333 10.7387 18.6656 10.3326 18.4422C9.34734 17.8959 8.48527 17.8283 7.82024 18.2888C7.68971 18.3896 7.58258 18.5173 7.5062 18.6632Z" fill="#FF7003"/>
<path d="M6.77332 23.3289L6.5578 23.2798C6.30864 23.2119 6.07743 23.0904 5.88046 22.9238C5.65879 22.7273 5.4679 22.4449 5.2216 22.3098C4.26716 21.8924 4.80288 23.8876 5.1046 24.6059C5.19791 24.8411 5.30907 25.069 5.43711 25.2873C5.5417 25.4919 5.68371 25.6751 5.85583 25.8276C5.96667 25.9135 6.08367 25.9688 6.1945 26.0609C6.34701 26.1809 6.46254 26.3412 6.52788 26.5236C6.59322 26.7061 6.60573 26.9031 6.56396 27.0923C6.54175 27.1645 6.49546 27.227 6.43275 27.2695C6.37004 27.3119 6.29467 27.3317 6.21913 27.3256C5.89244 27.2477 5.58516 27.1041 5.31619 26.9035C5.04722 26.7029 4.82224 26.4496 4.65509 26.1591C4.26101 25.5452 4.48268 25.1277 4.39032 24.5813C4.30375 24.1832 4.16721 23.7975 3.98391 23.4333C3.86672 23.2184 3.76187 22.997 3.66987 22.7703C3.51386 22.437 3.46562 22.0635 3.53181 21.7017C3.598 21.3398 3.77535 21.0074 4.03933 20.7505C4.4211 20.4435 4.92603 20.2594 5.15386 19.6945C5.3817 19.1297 5.3078 18.1904 5.56027 17.5765C5.66495 17.3125 5.75115 17.1529 5.99746 17.067C6.28489 16.9692 6.59672 16.9692 6.88416 17.067C7.6046 17.2941 8.11569 18.4483 8.15263 19.2096C8.17877 19.4039 8.15586 19.6017 8.08597 19.785C8.01609 19.9683 7.90143 20.1314 7.75239 20.2594C7.61076 20.3637 7.42603 20.419 7.33367 20.5909C7.17972 20.861 7.33367 21.2723 7.46298 21.6714C7.6552 22.0744 7.72375 22.525 7.66002 22.9667C7.63007 23.0662 7.57258 23.1553 7.49416 23.2237C7.41574 23.2921 7.31957 23.3371 7.21667 23.3535C7.06866 23.3733 6.91822 23.365 6.77332 23.3289Z" fill="#FF7003"/>
<path d="M10.1355 19.3324L8.98405 18.6694C6.87198 17.4415 5.16016 18.4299 5.16016 20.8488V23.065L5.84365 22.9668V21.0759C5.84365 19.0316 7.2907 18.4668 9.07641 19.492L10.0493 20.0507C10.9788 20.6076 11.7587 21.3813 12.3219 22.3053C12.885 23.2293 13.2145 24.2759 13.2821 25.3549V27.9395L13.9656 28.1606V25.9198C13.8913 24.5989 13.5058 23.3141 12.8404 22.1696C12.1749 21.0251 11.2483 20.0531 10.1355 19.3324Z" fill="#585AA7"/>
<path d="M8.99016 30.2171L8.30666 29.8242C8.18067 29.733 8.07739 29.6141 8.00478 29.4768C7.93218 29.3395 7.89221 29.1874 7.88794 29.0322C7.88794 28.7252 8.07883 28.584 8.30666 28.713L8.99016 29.112C9.11718 29.2022 9.22123 29.3208 9.29395 29.4584C9.36666 29.5959 9.40603 29.7485 9.40887 29.904C9.40887 30.2109 9.23646 30.346 8.99016 30.2171Z" fill="#585AA7"/>
<path d="M8.70694 29.5848L7.76482 29.0139C6.95431 28.4761 6.37965 27.6507 6.15768 26.7056L5.91138 25.6128L6.053 25.6496L6.29931 26.7363C6.49891 27.6045 7.02586 28.3629 7.77098 28.8543L8.7131 29.4314L8.70694 29.5848Z" fill="#585AA7"/>
<path d="M84.7475 91.474C81.9643 89.8717 79.4458 89.7243 77.6231 90.7803L76.0283 91.7012C77.8756 90.6452 80.3756 90.7987 83.1527 92.3949C88.6946 95.5873 93.1712 103.317 93.1589 109.652C93.1589 112.808 92.032 115.024 90.2278 116.068L91.8227 115.147C93.6268 114.103 94.7414 111.881 94.7475 108.725C94.766 102.408 90.2956 94.6787 84.7475 91.474Z" fill="#999999"/>
<path d="M83.1282 92.4072C88.67 95.5996 93.1467 103.329 93.1343 109.664C93.122 116 88.6085 118.572 83.0666 115.38C77.5247 112.188 73.0604 104.471 73.0789 98.1228C73.0974 91.7749 77.6294 89.2271 83.1282 92.4072Z" fill="#333333"/>
<path d="M89.3597 116.461C87.6418 117.075 85.4681 116.749 83.0974 115.374C80.7156 113.927 78.6776 111.981 77.1245 109.671C77.5124 108.025 78.9718 107.485 80.7021 108.498L85.8745 111.476C87.6459 112.618 88.8972 114.408 89.3597 116.461Z" fill="#FF3333"/>
<path d="M84.6552 112.562C83.9532 113.041 82.7463 112.378 82.0136 111.101L81.9643 111.021C81.6434 110.487 81.4633 109.881 81.4409 109.259V105.962L85.1355 108.08V111.432C85.1526 111.645 85.1179 111.859 85.0343 112.056C84.9506 112.253 84.8206 112.426 84.6552 112.562Z" fill="#FFE5CC"/>
<path d="M81.2254 95.9249C81.1249 95.787 81.0021 95.6666 80.8621 95.5688C80.6201 95.4041 80.3292 95.3261 80.037 95.3478C79.7317 95.3691 79.4347 95.4564 79.1667 95.6038C78.8987 95.7512 78.6662 95.955 78.4853 96.2011C78.0875 96.7513 77.8106 97.3788 77.6725 98.0429L77.5986 98.3621C77.3744 99.5291 77.3205 100.722 77.4385 101.904C77.5206 103.177 77.7605 104.435 78.1528 105.649C78.2732 106.033 78.4321 106.403 78.6269 106.754C79.0148 107.424 79.4705 107.724 79.8584 107.7C80.2464 107.675 80.4742 107.129 80.5727 106.601C80.6988 105.922 80.7729 105.234 80.7944 104.544C80.7811 103.716 80.6716 102.892 80.468 102.089C80.3313 101.616 80.2325 101.134 80.1725 100.646C80.1461 100.455 80.1586 100.261 80.2094 100.075C80.2648 99.9399 80.4188 99.8785 80.5111 99.7741C80.9335 99.2411 81.2056 98.6053 81.2993 97.9324C81.4163 97.429 81.6688 96.5695 81.2254 95.9249Z" fill="#7D4B1C"/>
<path d="M85.8928 97.4844C86.0199 97.722 86.125 97.9706 86.2069 98.2272C86.2992 98.4544 86.3916 98.6815 86.4901 98.9087C86.6687 99.3446 86.9396 99.762 87.1059 100.204C87.2917 100.662 87.4541 101.129 87.5923 101.604C87.7907 102.138 87.9109 102.699 87.9495 103.268C87.9273 103.419 87.888 103.567 87.8325 103.71C87.7709 103.967 87.7217 104.244 87.6662 104.508C87.6189 104.893 87.4915 105.265 87.2922 105.599C87.0929 105.933 86.8261 106.222 86.5086 106.448C86.3408 106.509 86.1891 106.608 86.0653 106.736C85.9503 106.921 85.8865 107.133 85.8805 107.35C85.8337 108.157 85.8771 108.966 86.0098 109.763C86.0597 110.46 86.3074 111.128 86.7241 111.69C87.1244 112.175 87.5862 112.403 87.9556 112.175C88.1598 112.036 88.3233 111.846 88.4298 111.623C89.0086 110.604 89.1564 109.094 89.1441 107.602C89.1415 106.493 89.0447 105.386 88.8547 104.293C88.6681 103.081 88.3565 101.892 87.9249 100.744C87.4872 99.5262 86.7945 98.4149 85.8928 97.4844Z" fill="#7D4B1C"/>
<path d="M86.5581 105.785C86.3468 106.162 86.2511 106.593 86.2828 107.024C86.3145 107.455 86.4723 107.867 86.7366 108.21C86.8398 108.356 86.9793 108.473 87.1415 108.549C87.3037 108.626 87.483 108.659 87.6619 108.645C87.8407 108.631 88.013 108.572 88.1616 108.472C88.3103 108.372 88.4304 108.235 88.51 108.074C88.7216 107.698 88.8175 107.268 88.7857 106.838C88.7539 106.408 88.596 105.997 88.3315 105.656C88.2288 105.509 88.0897 105.392 87.9279 105.315C87.766 105.238 87.5868 105.204 87.408 105.217C87.2292 105.23 87.0568 105.289 86.9078 105.389C86.7588 105.488 86.6383 105.625 86.5581 105.785Z" fill="#FFE5CC"/>
<path d="M80.1479 102.095C80.5851 103.323 80.505 104.299 79.9693 104.311C79.4336 104.323 78.6393 103.353 78.1959 102.144C77.7526 100.934 77.8388 99.9399 78.3745 99.9276C78.9102 99.9153 79.7046 100.885 80.1479 102.095Z" fill="#FFE5CC"/>
<path d="M87.0014 100.965C86.2237 99.1672 84.9214 97.6441 83.2637 96.5941C81.7613 95.7284 80.3512 95.7653 79.4953 96.6923C79.3095 96.9317 79.1762 97.2073 79.1041 97.5013C79.0319 97.7953 79.0226 98.1011 79.0765 98.399L79.6184 103.973C79.7564 105.078 80.1645 106.132 80.8068 107.043L81.3364 107.816C82.4755 109.468 84.0457 110.401 85.2095 110.113L85.8253 109.959C86.2037 109.835 86.5316 109.592 86.7602 109.267C86.9888 108.941 87.1058 108.551 87.0938 108.154L87.5063 103.243C87.5399 102.497 87.3876 101.755 87.063 101.082L87.0014 100.965Z" fill="#FFE5CC"/>
<path d="M81.0224 95.9739C80.8869 96.152 81.6381 97.6438 81.7798 97.9017C82.2 98.7544 82.7209 99.5541 83.3315 100.284C84.0642 101.155 84.8894 101.861 85.6591 102.672C86.3775 103.418 86.9478 104.293 87.3401 105.25C87.7583 105.247 88.1609 105.408 88.4608 105.698C88.4922 103.742 88.1624 101.796 87.4879 99.9583C86.8102 98.3658 85.7015 96.9926 84.2859 95.9924C82.9743 95.0838 81.7059 95.0838 81.0224 95.9739Z" fill="#7D4B1C"/>
<path d="M81.8043 96.6863C81.8043 96.6863 81.8043 98.5833 80.1664 98.9946C79.952 99.0656 79.7678 99.2067 79.6438 99.395C79.5198 99.5833 79.4631 99.8078 79.4829 100.032C79.4908 100.125 79.4771 100.219 79.4429 100.307C79.4088 100.394 79.355 100.472 79.2859 100.536L78.9287 99.1174L79.0088 97.1897L79.4767 96.2259L80.1726 95.747L80.8376 95.7163L81.8536 96.2566L81.8043 96.6863Z" fill="#7D4B1C"/>
<path d="M91.9458 61.0728L31.4039 26.2206C31.1188 26.012 30.7829 25.8831 30.431 25.8475C30.0791 25.8119 29.7241 25.8708 29.4027 26.018L27.8079 26.945C28.129 26.7982 28.4835 26.739 28.8351 26.7735C29.1867 26.808 29.5228 26.935 29.8091 27.1415L90.351 62.006C91.1704 62.5338 91.8523 63.2483 92.3405 64.0904C92.8287 64.9326 93.1092 65.8783 93.1588 66.8498L93.1157 80.8594C93.1511 81.2023 93.0944 81.5484 92.9516 81.8622C92.8088 82.1761 92.585 82.4466 92.3029 82.6459L93.8916 81.725C94.1733 81.5251 94.3974 81.2547 94.5411 80.9412C94.6849 80.6276 94.7433 80.2818 94.7106 79.9385L94.7475 65.9289C94.7004 64.9559 94.4218 64.008 93.9346 63.1637C93.4474 62.3193 92.7657 61.6026 91.9458 61.0728Z" fill="#999999"/>
<path d="M90.351 62.0059C91.1705 62.5337 91.8524 63.2482 92.3406 64.0903C92.8287 64.9325 93.1092 65.8783 93.1589 66.8497L93.1158 80.8593C93.1158 82.6274 91.8535 83.3457 90.2895 82.4494L29.7476 47.5849C28.9298 47.0582 28.2489 46.3457 27.7608 45.5058C27.2727 44.666 26.9913 43.7227 26.9397 42.7534L26.9828 28.7499C26.9828 26.9634 28.2143 26.2451 29.803 27.1414L90.351 62.0059Z" fill="#333333"/>
<path d="M84.7229 67.347L35.4988 39.0085V37.8359L84.7229 66.1683V67.347Z" fill="white"/>
<path d="M66.3362 61.0973L35.4988 43.3489V42.1702L66.3362 59.9186V61.0973Z" fill="white"/>
<path d="M84.723 71.6812L68.7131 62.4663V61.2876L84.723 70.5025V71.6812Z" fill="white"/>
<path d="M65 80.6076L4.4458 45.7493C4.16234 45.5442 3.82903 45.4185 3.48042 45.385C3.1318 45.3515 2.78055 45.4116 2.46305 45.559L0.862061 46.4799C1.17974 46.3315 1.53122 46.2698 1.88064 46.301C2.23006 46.3323 2.56489 46.4555 2.85098 46.6579L63.4236 81.5285C64.2364 82.0604 64.9124 82.7754 65.3969 83.6157C65.8815 84.4561 66.161 85.3983 66.213 86.3662L66.1761 100.376C66.2096 100.722 66.151 101.072 66.0062 101.389C65.8613 101.705 65.6353 101.979 65.351 102.181L66.9458 101.26C67.2239 101.054 67.443 100.779 67.5813 100.462C67.7195 100.145 67.7722 99.7982 67.734 99.4549L67.7771 85.4515C67.7308 84.4828 67.455 83.5388 66.9723 82.6968C66.4896 81.8549 65.8137 81.1389 65 80.6076Z" fill="#999999"/>
<path d="M63.4236 81.5286C64.2388 82.0579 64.9166 82.7723 65.4015 83.6132C65.8863 84.4541 66.1645 85.3976 66.2131 86.3663L66.1761 100.376C66.1761 102.162 64.9076 102.875 63.3621 101.991L2.78941 67.1261C1.97503 66.5973 1.29774 65.8839 0.812928 65.0442C0.328114 64.2044 0.0495449 63.2622 0 62.2945L0.0369458 48.2849C0.0369458 46.5168 1.30542 45.7801 2.85099 46.6703L63.4236 81.5286Z" fill="#333333"/>
<path d="M56.2991 91.8056L7.06885 63.4671V62.2883L56.2991 90.6268V91.8056Z" fill="white"/>
<path d="M37.9063 76.4821L7.06885 58.7337V57.5549L37.9063 75.3033V76.4821Z" fill="white"/>
<path d="M56.2992 87.066L40.2832 77.845V76.6724L56.2992 85.8873V87.066Z" fill="white"/>
<path d="M11.644 82.8239C8.86076 81.2215 6.34229 81.0742 4.51963 82.1301L2.9248 83.051C4.7721 81.9951 7.2721 82.1424 10.0492 83.7447C15.5911 86.9371 20.0677 94.6664 20.0492 101.002C20.0492 104.158 18.9285 106.374 17.1243 107.417L18.7191 106.497C20.5172 105.453 21.6379 103.231 21.644 100.075C21.6625 93.7393 17.1859 86.0162 11.644 82.8239Z" fill="#80C5FF"/>
<path d="M10.0493 83.7448C15.5911 86.9372 20.0677 94.6665 20.0493 101.002C20.0308 107.338 15.5296 109.892 9.98768 106.718C4.44581 103.544 0 95.8083 0 89.4604C0 83.1125 4.5197 80.5647 10.0493 83.7448Z" fill="#0081ED"/>
<path d="M15.431 107.436V108.001C13.8547 108.259 11.9889 107.86 9.98766 106.705C7.53558 105.217 5.45186 103.196 3.8916 100.793C3.8916 98.6569 5.41254 97.8035 7.2783 98.8595L12.0566 101.616C13.0391 102.253 13.8568 103.111 14.4432 104.123C15.0296 105.134 15.3681 106.269 15.431 107.436Z" fill="#1F2125"/>
<path d="M10.9298 102.635C10.2833 103.083 9.16873 102.469 8.46676 101.291L8.42366 101.217C8.1276 100.724 7.9623 100.164 7.94336 99.5901V96.5205L11.3424 98.4789V101.549C11.3724 101.75 11.3502 101.955 11.278 102.145C11.2058 102.336 11.0859 102.504 10.9298 102.635Z" fill="#FFE5CC"/>
<path d="M6.55776 92.8062C6.95185 93.8929 6.88412 94.7831 6.40382 94.7953C5.92353 94.8076 5.22156 93.9358 4.82747 92.8492C4.43338 91.7626 4.50111 90.8601 4.98141 90.8601C5.46171 90.8601 6.15752 91.7257 6.55776 92.8062Z" fill="#585AA7"/>
<path d="M12.5985 96.281C12.4076 96.6173 12.3203 97.0022 12.3477 97.3877C12.3751 97.7732 12.5159 98.142 12.7525 98.4481C12.8458 98.5769 12.9708 98.6796 13.1154 98.7464C13.26 98.8132 13.4194 98.8418 13.5783 98.8294C13.7372 98.8171 13.8902 98.7643 14.0227 98.676C14.1552 98.5877 14.2628 98.467 14.335 98.3253C14.5235 97.988 14.6088 97.603 14.5804 97.2179C14.5519 96.8327 14.411 96.4644 14.1749 96.1582C14.0823 96.0293 13.9579 95.9264 13.8137 95.8595C13.6696 95.7926 13.5105 95.7639 13.352 95.7762C13.1934 95.7886 13.0408 95.8415 12.9088 95.93C12.7768 96.0184 12.6699 96.1393 12.5985 96.281Z" fill="#585AA7"/>
<path d="M12.9866 91.8669C12.2631 90.2098 11.0603 88.8055 9.53213 87.8335C8.14666 87.0354 6.8474 87.0722 6.05922 87.9256C5.8878 88.1471 5.76428 88.4017 5.69645 88.6733C5.62862 88.9448 5.61796 89.2275 5.66513 89.5033L6.17006 94.648C6.29843 95.6645 6.67477 96.6341 7.26612 97.472L7.75873 98.1903C8.80553 99.7128 10.2587 100.572 11.3302 100.308L11.8905 100.167C12.2401 100.053 12.5428 99.8277 12.7528 99.5264C12.9628 99.2251 13.0686 98.8639 13.0543 98.4972L13.4361 93.9542C13.4705 93.2677 13.3307 92.5836 13.0297 91.9651L12.9866 91.8669Z" fill="#FFE5CC"/>
<path d="M7.5062 87.2747C7.45694 87.3545 7.41384 87.4405 7.37073 87.5264C7.3385 87.638 7.326 87.7544 7.33379 87.8702C7.33027 88.1306 7.35923 88.3905 7.42 88.6438C7.51119 89.0322 7.66508 89.4034 7.87566 89.7427C8.17792 90.1277 8.59012 90.4124 9.05793 90.5592C9.54003 90.7216 9.9497 91.0475 10.2156 91.4801C10.4137 91.9229 10.4922 92.4096 10.4434 92.8921C10.4316 93.1461 10.4713 93.4 10.5602 93.6384C10.6491 93.8768 10.7853 94.0948 10.9606 94.2795C11.2747 94.5374 11.5764 94.4391 11.8597 94.476C12.1803 94.535 12.4786 94.6807 12.7218 94.8973C12.9651 95.1138 13.144 95.3928 13.239 95.7038C13.3031 95.9824 13.4003 96.2524 13.5284 96.5081C13.5531 96.416 13.6121 96.3369 13.6933 96.2867C13.7745 96.2365 13.8719 96.2191 13.9656 96.2379C14.7106 96.3546 14.4705 97.8955 14.3042 98.1595C14.1964 98.346 14.0615 98.5157 13.904 98.6629C13.829 98.7339 13.7353 98.782 13.6338 98.8015C13.5324 98.8211 13.4274 98.8114 13.3313 98.7734C13.2451 98.7734 13.0358 98.5647 12.9927 98.6261C12.9283 98.7052 12.8821 98.7974 12.8572 98.8962C12.8273 99.0503 12.8273 99.2087 12.8572 99.3628C12.916 99.6282 13.0433 99.8737 13.2266 100.075C13.3894 100.255 13.5861 100.401 13.8055 100.505C13.9747 100.598 14.1672 100.641 14.3603 100.629C14.5534 100.617 14.739 100.551 14.8954 100.437C15.0402 100.291 15.1528 100.116 15.226 99.9231C15.2991 99.7307 15.3312 99.5253 15.3202 99.3198C15.3024 98.9986 15.2529 98.6798 15.1725 98.3682C15.1069 98.0751 15.1069 97.7712 15.1725 97.478C15.2956 97.0299 15.622 96.772 15.7574 96.3362C15.8961 95.7131 15.8111 95.0614 15.5173 94.4944C14.9877 93.3341 13.9471 92.4562 13.4052 91.302C13.1343 90.6881 13.0173 90.111 12.7402 89.5278C12.4252 88.8926 11.983 88.3285 11.4409 87.8702C11.0941 87.5632 10.7141 87.2955 10.3079 87.0721C9.3227 86.5257 8.46064 86.4582 7.79561 86.9186C7.67682 87.0174 7.57851 87.1384 7.5062 87.2747Z" fill="#FF7003"/>
<path d="M6.77348 91.9468C6.70027 91.9342 6.6282 91.9157 6.55797 91.8915C6.3078 91.8262 6.07605 91.7044 5.88063 91.5355C5.65895 91.3452 5.46806 91.0628 5.22176 90.9584C4.26733 90.5409 4.80304 92.5362 5.10476 93.2544C5.19216 93.4871 5.29714 93.7129 5.4188 93.9298C5.52171 94.1371 5.66389 94.3227 5.83752 94.4761C5.94836 94.5621 6.06536 94.6173 6.17619 94.7033C6.32864 94.8247 6.44402 94.9862 6.5093 95.1695C6.57459 95.3529 6.58718 95.5507 6.54565 95.7408C6.52344 95.8131 6.47715 95.8756 6.41444 95.918C6.35173 95.9604 6.27636 95.9802 6.20082 95.9741C5.87413 95.8963 5.56685 95.7527 5.29788 95.5521C5.02891 95.3515 4.80393 95.0981 4.63678 94.8077C4.2427 94.1937 4.46437 93.7763 4.37201 93.2299C4.28433 92.834 4.14782 92.4504 3.9656 92.088C3.84846 91.8752 3.74361 91.6559 3.65156 91.4311C3.49555 91.0978 3.44731 90.7244 3.5135 90.3625C3.57969 90.0007 3.75704 89.6683 4.02102 89.4113C4.42127 89.0737 4.92004 88.8649 5.15403 88.3247C5.38802 87.7844 5.30797 86.8206 5.56043 86.2067C5.66511 85.9365 5.75132 85.783 5.99762 85.6971C6.28506 85.5993 6.59689 85.5993 6.88432 85.6971C7.60476 85.9243 8.11585 87.0723 8.15279 87.8397C8.17577 88.0311 8.1513 88.2253 8.08152 88.4051C8.01174 88.5849 7.89878 88.7449 7.75255 88.8711C7.61092 88.9754 7.42619 89.0307 7.33383 89.2026C7.17989 89.4666 7.33383 89.884 7.46314 90.2831C7.65536 90.6861 7.72391 91.1367 7.66018 91.5784C7.63023 91.6779 7.57274 91.767 7.49432 91.8354C7.4159 91.9038 7.31973 91.9488 7.21683 91.9652C7.06921 91.987 6.91878 91.9808 6.77348 91.9468Z" fill="#FF7003"/>
<path d="M10.1355 87.9501L8.98405 87.287C6.87198 86.0592 5.16016 87.0476 5.16016 89.4665V91.6827L5.84365 91.5845V89.6936C5.84365 87.6493 7.2907 87.0783 9.07641 88.1097L10.0493 88.6684C10.9795 89.2245 11.76 89.998 12.3232 90.9222C12.8865 91.8463 13.2156 92.8933 13.2821 93.9726V96.5572L13.9656 96.7782V94.5436C13.8937 93.2213 13.5093 91.9347 12.8437 90.7889C12.1781 89.643 11.2501 88.6702 10.1355 87.9501Z" fill="#585AA7"/>
<path d="M8.99016 98.8409L8.30666 98.448C8.17985 98.3562 8.07607 98.2364 8.00344 98.0979C7.9308 97.9595 7.89127 97.8061 7.88794 97.6499C7.88794 97.3491 8.07883 97.2079 8.30666 97.3368L8.99016 97.7297C9.11696 97.8216 9.22074 97.9414 9.29338 98.0798C9.36602 98.2183 9.40555 98.3716 9.40887 98.5278C9.40887 98.8409 9.23646 98.9637 8.99016 98.8409Z" fill="#585AA7"/>
<path d="M8.70694 98.2271L7.76482 97.6132C6.95942 97.0784 6.3856 96.2608 6.15768 95.3232L5.91138 94.2305L6.053 94.2673L6.29931 95.3539C6.49908 96.2122 7.01571 96.964 7.74635 97.4597L8.68847 98.0368L8.70694 98.2271Z" fill="#585AA7"/>
<path d="M84.7475 160.049C81.9643 158.446 79.4458 158.299 77.6231 159.355L76.0283 160.276C77.8756 159.22 80.3756 159.367 83.1527 160.97C88.6946 164.162 93.1712 171.885 93.1589 178.221C93.1589 181.376 92.032 183.599 90.2278 184.642L91.8227 183.715C93.6268 182.672 94.7414 180.455 94.7475 177.3C94.766 170.964 90.2956 163.235 84.7475 160.049Z" fill="#999999"/>
<path d="M83.1282 160.97C88.67 164.162 93.1467 171.885 93.1343 178.221C93.122 184.556 88.6085 187.135 83.0666 183.942C77.5247 180.75 73.0604 173.033 73.0789 166.679C73.0974 160.325 77.6294 157.777 83.1282 160.97Z" fill="#333333"/>
<path d="M89.3597 185.017C87.6418 185.631 85.4681 185.311 83.0974 183.936C80.717 182.487 78.6794 180.541 77.1245 178.233C77.5124 176.588 78.9718 176.047 80.7021 177.06L85.8745 180.038C87.6455 181.178 88.8969 182.966 89.3597 185.017Z" fill="#FF3333"/>
<path d="M84.6552 181.106C83.9532 181.591 82.7463 180.922 82.0136 179.651L81.9643 179.571C81.6434 179.038 81.4633 178.431 81.4409 177.809V174.507L85.1355 176.631V179.983C85.1527 180.195 85.1179 180.408 85.0343 180.604C84.9506 180.799 84.8205 180.972 84.6552 181.106Z" fill="#FFE5CC"/>
<path d="M81.2254 164.487C81.1266 164.348 81.0036 164.228 80.8621 164.131C80.6249 163.967 80.3372 163.891 80.0493 163.917C79.7444 163.937 79.4476 164.023 79.1796 164.169C78.9116 164.316 78.6788 164.518 78.4976 164.764C78.0995 165.314 77.8226 165.941 77.6848 166.605L77.6109 166.919C77.3869 168.088 77.333 169.283 77.4508 170.467C77.5329 171.74 77.7728 172.998 78.1651 174.212C78.2856 174.593 78.4445 174.961 78.6392 175.311C79.0272 175.98 79.4828 176.287 79.8708 176.262C80.2587 176.238 80.4865 175.685 80.585 175.164C80.7108 174.482 80.7849 173.793 80.8067 173.101C80.793 172.272 80.6835 171.448 80.4804 170.645C80.343 170.173 80.2442 169.69 80.1848 169.202C80.1584 169.011 80.171 168.817 80.2217 168.631C80.2772 168.496 80.4311 168.435 80.5235 168.337C80.9458 167.804 81.2179 167.168 81.3116 166.495C81.4163 165.992 81.6688 165.144 81.2254 164.487Z" fill="#7D4B1C"/>
<path d="M85.8928 166.041C86.0202 166.277 86.1273 166.523 86.213 166.777C86.3054 166.998 86.3978 167.232 86.4963 167.453C86.6749 167.888 86.9458 168.312 87.112 168.754C87.2988 169.212 87.4612 169.679 87.5985 170.154C87.7973 170.686 87.9176 171.245 87.9556 171.811C87.9342 171.963 87.8949 172.111 87.8386 172.253C87.7771 172.517 87.7278 172.794 87.6724 173.051C87.6251 173.437 87.4977 173.809 87.2984 174.143C87.0991 174.477 86.8322 174.766 86.5148 174.991C86.3225 175.046 86.1557 175.167 86.0432 175.332C85.9308 175.497 85.8797 175.695 85.899 175.894C85.8524 176.7 85.8957 177.51 86.0283 178.307C86.0793 179.002 86.327 179.668 86.7426 180.228C87.1428 180.719 87.6047 180.946 87.9741 180.719C88.1754 180.577 88.3383 180.387 88.4483 180.167C89.0271 179.142 89.1749 177.637 89.1625 176.146C89.1604 175.036 89.0635 173.929 88.8731 172.837C88.6871 171.625 88.3755 170.436 87.9433 169.288C87.4962 168.074 86.7975 166.967 85.8928 166.041Z" fill="#7D4B1C"/>
<path d="M86.558 174.353C86.3464 174.729 86.2506 175.159 86.2823 175.589C86.3141 176.019 86.472 176.431 86.7366 176.772C86.8392 176.918 86.9783 177.036 87.1402 177.113C87.3021 177.19 87.4812 177.223 87.66 177.21C87.8388 177.197 88.0112 177.138 88.1602 177.039C88.3092 176.939 88.4297 176.803 88.51 176.643C88.7279 176.262 88.8272 175.825 88.7954 175.388C88.7636 174.951 88.6021 174.533 88.3314 174.187C88.2258 174.042 88.0842 173.927 87.9204 173.853C87.7566 173.779 87.5763 173.749 87.3972 173.766C87.2182 173.782 87.0467 173.845 86.8995 173.948C86.7523 174.051 86.6346 174.191 86.558 174.353Z" fill="#FFE5CC"/>
<path d="M80.1479 170.669C80.5851 171.897 80.505 172.873 79.9693 172.886C79.4336 172.898 78.6393 171.928 78.1959 170.719C77.7526 169.509 77.8388 168.515 78.3745 168.502C78.9102 168.49 79.7046 169.442 80.1479 170.669Z" fill="#FFE5CC"/>
<path d="M87.0012 169.522C86.222 167.725 84.92 166.202 83.2636 165.15C81.7611 164.285 80.351 164.322 79.4951 165.249C79.3098 165.49 79.1769 165.766 79.1048 166.061C79.0327 166.356 79.023 166.663 79.0764 166.961L79.6183 172.53C79.7562 173.635 80.1643 174.689 80.8067 175.599L81.3362 176.379C82.4754 178.03 84.0456 178.964 85.2094 178.669L85.8251 178.522C86.2046 178.397 86.5332 178.153 86.7619 177.827C86.9906 177.5 87.107 177.109 87.0936 176.711L87.5062 171.799C87.5395 171.055 87.3871 170.315 87.0628 169.644L87.0012 169.522Z" fill="#FFE5CC"/>
<path d="M81.0224 164.53C80.8869 164.708 81.6381 166.2 81.7798 166.452C82.2 167.305 82.7209 168.104 83.3315 168.834C84.0642 169.712 84.8894 170.412 85.6591 171.222C86.3776 171.97 86.948 172.847 87.3401 173.807C87.547 173.802 87.7526 173.839 87.9451 173.915C88.1375 173.991 88.3128 174.105 88.4608 174.249C88.4914 172.294 88.1616 170.351 87.4879 168.515C86.8103 166.92 85.7017 165.545 84.2859 164.543C82.9743 163.64 81.7059 163.64 81.0224 164.53Z" fill="#7D4B1C"/>
<path d="M81.8043 165.249C81.8043 165.249 81.8043 167.139 80.1664 167.551C79.9526 167.623 79.7691 167.764 79.6452 167.952C79.5213 168.14 79.4642 168.364 79.4829 168.588C79.4908 168.682 79.4771 168.776 79.4429 168.863C79.4088 168.95 79.355 169.028 79.2859 169.092L78.9287 167.68L79.0088 165.752L79.4767 164.782L80.1726 164.309L80.8376 164.279L81.8536 164.819L81.8043 165.249Z" fill="#7D4B1C"/>
<path d="M91.9458 129.629L31.4039 94.777C31.1177 94.5705 30.7816 94.4435 30.4299 94.409C30.0783 94.3745 29.7238 94.4337 29.4027 94.5805L27.8079 95.5014C28.1292 95.3541 28.4843 95.2953 28.8362 95.3309C29.188 95.3665 29.524 95.4953 29.8091 95.704L90.3571 130.55C91.175 131.081 91.8555 131.797 92.3434 132.64C92.8313 133.483 93.1128 134.428 93.165 135.4L93.1219 149.404C93.1564 149.747 93.0995 150.094 92.9568 150.409C92.8141 150.723 92.5907 150.995 92.3091 151.196L93.8978 150.269C94.1804 150.07 94.4052 149.8 94.549 149.486C94.6929 149.172 94.7507 148.826 94.7167 148.483L94.7537 134.473C94.704 133.502 94.4235 132.556 93.9353 131.714C93.4471 130.872 92.7652 130.157 91.9458 129.629Z" fill="#999999"/>
<path d="M90.351 130.556C91.1705 131.084 91.8524 131.798 92.3406 132.641C92.8287 133.483 93.1092 134.429 93.1589 135.4L93.1158 149.41C93.1158 151.178 91.8535 151.865 90.2895 150.993L29.7476 116.141C28.9306 115.615 28.2502 114.904 27.7621 114.065C27.2741 113.226 26.9922 112.284 26.9397 111.316L26.9828 97.3063C26.9828 95.5198 28.2143 94.8076 29.803 95.7039L90.351 130.556Z" fill="#333333"/>
<path d="M84.7229 135.903L35.4988 107.571V106.392L84.7229 134.731V135.903Z" fill="white"/>
<path d="M66.3362 129.654L35.4988 111.905V110.727L66.3362 128.481V129.654Z" fill="white"/>
<path d="M84.723 140.244L68.7131 131.023V129.844L84.723 139.065V140.244Z" fill="white"/>
<path d="M65 149.182L4.4458 114.306C4.16153 114.102 3.82837 113.978 3.48014 113.944C3.1319 113.911 2.781 113.97 2.46305 114.115L0.862061 115.042C1.18034 114.894 1.53277 114.833 1.8826 114.866C2.23243 114.9 2.56685 115.026 2.85098 115.233L63.4236 150.091C64.2368 150.622 64.913 151.337 65.3976 152.178C65.8822 153.018 66.1615 153.961 66.213 154.929L66.1761 168.932C66.2101 169.28 66.1517 169.63 66.0069 169.948C65.8621 170.266 65.6358 170.54 65.351 170.743L66.9458 169.816C67.2309 169.615 67.4571 169.342 67.6011 169.025C67.745 168.707 67.8015 168.357 67.7648 168.011L67.8079 154.002C67.7514 153.035 67.4679 152.095 66.9802 151.258C66.4924 150.421 65.8141 149.71 65 149.182Z" fill="#999999"/>
<path d="M63.4236 150.091C64.2388 150.62 64.9166 151.335 65.4015 152.175C65.8863 153.016 66.1645 153.96 66.2131 154.929L66.1761 168.932C66.1761 170.719 64.9076 171.437 63.3621 170.547L2.78941 135.676C1.97584 135.148 1.29906 134.435 0.814289 133.597C0.329518 132.758 0.0504979 131.817 0 130.851L0.0369458 116.841C0.0369458 115.073 1.30542 114.342 2.85099 115.233L63.4236 150.091Z" fill="#333333"/>
<path d="M56.2991 160.362L7.06885 132.029V130.851L56.2991 159.183V160.362Z" fill="white"/>
<path d="M37.9063 145.038L7.06885 127.29V126.111L37.9063 143.86V145.038Z" fill="white"/>
<path d="M56.2992 155.622L40.2832 146.407V145.229L56.2992 154.45V155.622Z" fill="white"/>
</svg>
